<?xml version="1.0" standalone="no"?>
<!DOCTYPE svg PUBLIC "-//W3C//DTD SVG 20010904//EN"
 "http://www.w3.org/TR/2001/REC-SVG-20010904/DTD/svg10.dtd">
<svg version="1.0" xmlns="http://www.w3.org/2000/svg"
 width="400.000000pt" height="400.000000pt" viewBox="0 0 400.000000 400.000000"
 preserveAspectRatio="xMidYMid meet">
<metadata>
Created by potrace 1.11, written by Peter Selinger 2001-2013
</metadata>
<g transform="translate(0.000000,400.000000) scale(0.100000,-0.100000)"
fill="#000000" stroke="none">
<path d="M515 3980 c-11 -35 4 -74 49 -129 24 -29 53 -72 65 -97 31 -61 55
-75 127 -72 l59 3 0 -32 c0 -30 2 -33 31 -33 19 0 34 -6 37 -15 4 -8 29 -26
57 -40 27 -14 50 -28 50 -32 0 -7 -39 -44 -88 -85 -18 -15 -31 -33 -30 -40 5
-21 80 -57 121 -58 37 0 84 -17 120 -42 14 -11 19 -11 26 0 4 8 12 12 17 10 5
-1 10 9 12 25 3 28 16 35 28 16 4 -8 9 -7 15 2 10 16 17 10 22 -19 2 -12 8
-27 14 -33 33 -33 -51 -86 -212 -134 -49 -15 -98 -29 -107 -32 -10 -3 -18 -9
-18 -14 0 -5 -6 -9 -12 -9 -7 0 -31 -16 -53 -36 -22 -20 -62 -47 -90 -60 -167
-79 -328 -364 -400 -709 -44 -214 -35 -407 25 -525 11 -21 20 -49 20 -62 0
-15 -53 -74 -178 -197 -98 -97 -188 -190 -200 -208 l-22 -32 0 -646 0 -645
125 0 125 0 18 36 19 37 40 -37 c22 -20 46 -36 52 -36 24 0 7 27 -41 65 -78
61 -86 83 -33 99 15 4 25 -2 40 -24 11 -17 36 -41 55 -55 19 -13 50 -38 69
-54 34 -31 34 -31 155 -31 l120 0 -71 72 c-77 79 -133 168 -133 213 0 15 5 45
12 66 13 45 6 59 -23 40 -12 -7 -23 -10 -26 -8 -7 8 47 110 74 138 l25 27 61
-40 c34 -23 73 -50 86 -62 23 -20 23 -20 13 -1 -6 11 -24 33 -41 49 -18 17
-31 40 -31 54 0 17 -4 23 -15 18 -9 -3 -15 0 -15 10 0 10 -6 14 -15 10 -10 -3
-15 1 -15 14 0 22 22 39 28 22 2 -7 8 -9 13 -6 13 8 99 -49 135 -89 43 -49 94
-123 94 -139 0 -7 -12 1 -26 17 -17 21 -22 23 -14 8 5 -12 15 -25 20 -28 21
-13 183 -245 245 -353 19 -31 22 -32 82 -32 58 0 63 2 64 23 0 22 0 22 9 1 6
-15 18 -21 39 -22 l31 -1 -15 30 c-12 21 -13 34 -5 48 5 11 10 55 9 98 -1 92
-5 87 -14 -19 -4 -43 -10 -78 -15 -78 -4 0 -15 16 -24 35 -14 29 -15 42 -5 77
6 24 17 95 23 158 l12 115 48 -95 48 -94 2 -138 1 -138 28 0 c31 0 43 21 53
93 3 23 7 48 10 55 2 8 39 -19 95 -68 101 -89 136 -106 66 -32 -62 68 -98 140
-62 126 8 -3 22 1 30 10 9 9 28 16 43 16 24 0 100 20 142 36 21 8 -53 30 -170
50 -52 8 -97 18 -100 21 -5 5 -19 286 -14 292 1 2 12 -12 23 -30 l21 -34 0 34
c0 28 27 147 35 159 1 1 24 -11 51 -27 27 -17 123 -57 214 -90 163 -59 165
-60 162 -88 -3 -23 -25 -76 -60 -145 -2 -5 0 -8 5 -8 14 0 70 101 78 139 7 32
8 33 49 28 46 -7 40 -4 -89 36 -152 48 -346 129 -392 164 -67 51 -95 56 -212
38 -70 -11 -106 -13 -119 -6 -79 42 -204 282 -225 432 -9 66 6 67 72 4 34 -32
61 -62 61 -66 0 -5 -14 -6 -32 -2 l-31 6 7 -44 c8 -52 26 -112 32 -106 3 2 1
15 -4 28 -5 13 -12 41 -16 63 l-7 38 37 -6 c44 -9 68 -30 60 -53 -8 -19 9 -33
40 -33 11 0 31 -12 45 -26 13 -15 36 -34 51 -44 16 -9 46 -34 69 -54 22 -21
42 -36 45 -33 2 2 -16 22 -42 43 -25 21 -68 58 -95 82 -27 23 -58 42 -68 42
-17 0 -37 38 -26 49 3 2 56 -22 118 -54 63 -32 119 -56 125 -54 7 2 -8 26 -34
53 -57 61 -114 136 -114 148 0 5 28 -15 62 -46 34 -31 65 -56 70 -56 5 0 31
-15 58 -34 64 -44 141 -66 222 -65 l63 2 -62 8 c-113 14 -272 120 -326 217
-18 31 -18 32 2 32 25 0 25 3 6 116 -16 88 -16 89 6 107 33 27 44 21 62 -36
22 -68 90 -181 112 -185 38 -8 130 53 228 152 l99 98 57 -6 57 -7 -4 37 c-3
20 -7 32 -11 27 -3 -5 -15 -5 -28 2 -14 7 -19 15 -13 21 13 13 -9 37 -58 62
-51 26 -157 37 -225 24 -35 -7 -49 -7 -52 2 -48 161 -72 290 -85 441 -8 95 -7
101 14 117 l21 18 -22 0 c-23 0 -23 1 -23 162 0 91 4 158 9 153 21 -24 173
-229 177 -239 3 -7 -8 -17 -23 -23 -27 -12 -27 -12 8 -7 35 6 36 5 66 -58 17
-35 38 -83 47 -108 45 -132 139 -355 144 -341 10 29 -124 373 -153 393 -5 4
-7 10 -3 13 3 4 28 -20 55 -53 26 -32 101 -117 166 -189 162 -180 211 -242
249 -321 l32 -67 9 70 c27 223 -22 621 -104 841 -39 104 -25 88 198 -226 138
-193 169 -240 208 -317 19 -37 34 -63 35 -58 0 22 -50 202 -73 260 -20 50
-112 263 -147 340 -5 11 -27 60 -50 109 -44 97 -43 96 -32 96 54 0 412 -338
503 -476 76 -112 129 -234 129 -294 0 -26 -3 -27 -63 -33 -116 -11 -231 -65
-321 -152 -56 -55 -80 -104 -71 -147 l7 -30 28 50 c58 100 124 146 269 187 74
22 109 26 172 23 43 -2 79 0 79 4 0 4 -17 24 -39 45 -38 38 -39 38 -40 122 -4
155 -32 259 -113 416 l-30 60 52 -50 c68 -65 140 -156 179 -226 53 -94 62
-171 66 -556 4 -385 4 -390 -67 -526 -49 -94 -47 -105 3 -27 18 28 34 50 35
50 2 0 12 -16 22 -36 15 -30 20 -33 30 -21 16 19 38 129 48 232 5 60 9 73 15
53 10 -36 -8 -188 -32 -276 -20 -71 -20 -111 0 -61 33 86 53 132 84 194 38 75
87 213 87 245 0 11 4 20 9 20 5 0 13 -37 17 -82 4 -46 9 -74 11 -63 13 72 13
72 43 0 15 -39 31 -82 34 -98 4 -15 12 -27 20 -27 7 0 19 -7 26 -15 20 -24 29
-17 32 27 2 23 8 43 15 45 14 5 57 -73 48 -87 -3 -5 1 -23 10 -40 9 -17 17
-47 19 -66 2 -19 6 -37 10 -41 10 -10 7 -25 -4 -18 -17 10 -11 -12 7 -26 29
-24 112 -160 124 -202 14 -53 5 -98 -27 -128 l-25 -24 -78 28 c-73 26 -158 35
-195 21 -12 -5 -9 -15 20 -57 36 -52 40 -75 14 -87 -97 -45 -141 -72 -202
-124 -132 -113 -181 -167 -227 -251 -16 -29 -21 -33 -17 -15 2 14 7 61 10 105
l5 80 -14 -70 c-7 -38 -14 -107 -14 -152 l-1 -83 350 0 350 0 0 25 c0 14 9 34
21 46 11 11 18 23 15 27 -4 3 -12 0 -18 -6 -19 -19 -28 -14 -28 17 0 39 -35
205 -55 260 -8 24 -13 46 -11 49 11 10 26 -12 31 -46 3 -20 10 -45 16 -54 5
-10 9 -29 9 -43 0 -14 5 -25 10 -25 6 0 8 13 4 33 -11 63 -22 132 -20 134 0 0
10 3 21 5 16 2 21 -5 27 -47 5 -27 6 -79 3 -115 -4 -43 -3 -60 4 -51 6 10 11
-22 16 -97 l8 -112 64 0 64 0 -2 347 -2 348 -26 35 c-14 19 -43 56 -63 81 -52
62 -48 73 7 19 25 -24 45 -40 45 -35 0 6 9 -1 20 -15 20 -25 20 -25 20 272 l0
296 -28 29 c-15 15 -34 39 -43 52 -24 38 -42 18 -24 -26 17 -41 18 -43 7 -43
-5 0 -14 10 -20 23 -8 17 -11 18 -11 5 -1 -10 -5 -18 -11 -18 -17 0 -11 49 8
68 22 22 76 159 91 230 23 109 8 324 -27 389 -7 12 -12 35 -12 50 0 16 -9 46
-20 68 -11 21 -18 41 -15 43 2 3 24 -3 48 -12 55 -21 57 -21 57 9 0 19 -7 26
-27 31 -29 7 -227 105 -254 127 -27 20 -45 67 -79 196 -17 69 -42 152 -56 185
-13 33 -24 64 -24 70 0 6 21 -10 46 -34 44 -43 46 -44 30 -13 -9 18 -16 39
-16 47 0 9 -10 36 -22 61 -12 24 -19 47 -15 51 3 4 39 -10 79 -30 94 -46 318
-146 329 -146 5 0 9 20 9 44 0 41 -3 46 -42 69 -55 32 -161 110 -224 164 -77
66 -141 117 -246 193 -53 38 -99 74 -103 79 -3 6 8 25 25 44 16 19 27 37 23
41 -3 3 -1 6 5 6 14 0 56 40 49 46 -2 3 -16 -1 -30 -7 -37 -17 -159 8 -133 27
16 11 16 13 -1 23 -17 9 -16 11 7 35 14 13 70 48 125 77 55 28 180 103 278
166 97 63 197 124 222 136 24 12 44 25 45 29 1 20 -209 -82 -330 -160 -86 -55
-148 -87 -245 -127 -155 -64 -267 -90 -173 -40 26 14 55 25 65 25 19 1 76 29
58 29 -5 0 -39 -6 -75 -14 -86 -19 -89 -19 -102 9 -13 30 -36 40 -55 25 -13
-12 -10 -24 8 -24 5 0 9 -3 9 -7 0 -5 0 -15 0 -23 0 -8 -9 -15 -20 -15 -11 0
-20 -4 -20 -10 0 -18 -46 -11 -65 10 -13 15 -21 17 -26 9 -8 -13 -23 67 -17
92 6 26 -41 77 -92 100 l-50 23 6 47 c4 30 2 49 -5 53 -7 5 -11 -2 -11 -16
l-1 -23 -23 26 c-22 25 -26 26 -67 17 -68 -16 -69 -17 -69 -29 0 -7 13 -9 40
-4 39 7 40 6 46 -24 4 -17 11 -31 16 -31 5 0 6 -4 3 -10 -3 -5 -26 -10 -51
-10 -25 0 -59 -7 -76 -16 -18 -9 -45 -20 -61 -25 -28 -8 -29 -7 -13 10 20 22
21 51 1 51 -8 0 -26 -5 -41 -12 -22 -10 -28 -10 -39 5 -7 9 -17 17 -24 17 -6
0 -11 5 -11 11 0 6 -6 25 -14 42 -8 18 -17 44 -20 60 -5 22 -12 27 -36 27 -24
0 -30 -4 -30 -21 0 -15 -5 -20 -22 -18 -13 2 -29 0 -35 -4 -9 -6 -13 -2 -13
11 0 12 -9 22 -22 26 -13 3 -178 6 -368 6 l-345 0 -1 -238 0 -237 -37 -77
c-31 -63 -43 -79 -65 -83 -94 -20 -122 -29 -161 -52 -55 -32 -61 -24 -60 79 2
86 18 128 70 179 36 36 47 63 43 112 -4 45 -8 53 -70 130 -77 94 -132 147
-155 147 -12 0 -23 8 -26 20 -5 17 -14 20 -70 20 l-65 0 3 -38 c2 -29 -9 -61
-45 -135 -27 -54 -53 -100 -57 -103 -5 -3 -9 -14 -9 -25 0 -10 -7 -19 -15 -19
-17 0 -19 9 -5 30 6 10 4 20 -5 30 -13 15 -55 113 -55 130 0 4 11 22 25 38 14
17 28 44 31 61 l7 31 -171 0 c-163 0 -171 -1 -177 -20z m514 -224 l-1 -94 -41
-5 c-62 -9 -70 4 -43 71 28 73 65 134 77 126 5 -3 9 -47 8 -98z m190 31 c18
-20 31 -43 28 -51 -6 -14 -64 -32 -74 -23 -8 8 -22 79 -23 110 0 25 2 27 18
15 10 -7 33 -30 51 -51z m1531 3 c0 -5 -4 -10 -8 -10 -5 0 -25 -16 -46 -36
-39 -38 -78 -43 -84 -11 -3 15 0 18 16 13 11 -4 26 -1 33 7 41 39 89 59 89 37z
m105 0 c4 -6 -8 -10 -29 -10 -19 0 -38 5 -41 10 -4 6 8 10 29 10 19 0 38 -4
41 -10z m-1585 -110 c0 -11 -7 -36 -14 -55 -11 -26 -21 -35 -38 -35 -21 0 -23
5 -23 50 0 47 1 49 30 53 17 2 33 5 38 5 4 1 7 -7 7 -18z m1314 -19 c4 -5 -3
-7 -14 -4 -23 6 -26 13 -6 13 8 0 17 -4 20 -9z m-1549 -61 c0 -57 -17 -61 -69
-18 l-39 32 39 17 c58 26 69 21 69 -31z m1596 5 c114 -21 226 -66 304 -121 17
-12 61 -36 99 -53 38 -17 93 -47 121 -66 57 -37 159 -130 135 -121 -34 11
-213 86 -252 105 -49 22 -213 92 -302 127 -33 13 -71 24 -85 24 -35 0 -48 10
-52 40 -5 32 -46 67 -84 73 l-30 4 31 2 c18 0 69 -6 115 -14z m-161 -5 c0 -5
-4 -10 -9 -10 -6 0 -13 5 -16 10 -3 6 1 10 9 10 9 0 16 -4 16 -10z m723 -27
c-7 -2 -21 -2 -30 0 -10 3 -4 5 12 5 17 0 24 -2 18 -5z m-133 -23 c0 -5 -5
-10 -11 -10 -5 0 -7 5 -4 10 3 6 8 10 11 10 2 0 4 -4 4 -10z m-1905 -11 c4 -5
0 -18 -9 -28 -15 -17 -15 -19 -1 -25 23 -8 9 -26 -21 -26 -15 0 -27 7 -30 18
-3 9 -10 25 -15 34 -12 24 -12 26 9 31 32 9 61 7 67 -4z m-95 -89 c0 -11 -4
-20 -10 -20 -5 0 -10 9 -10 20 0 11 5 20 10 20 6 0 10 -9 10 -20z m1220 -110
c0 -5 -2 -10 -4 -10 -3 0 -8 5 -11 10 -3 6 -1 10 4 10 6 0 11 -4 11 -10z m161
-7 c28 -13 39 -24 39 -40 0 -14 -6 -23 -15 -23 -8 0 -15 6 -15 13 0 6 -14 21
-30 32 -28 19 -39 35 -23 35 3 0 24 -8 44 -17z m604 -50 c43 -23 125 -93 125
-106 0 -8 -4 -7 -12 1 -7 7 -20 12 -30 12 -10 0 -18 4 -18 8 0 4 -15 13 -34
20 -31 12 -72 42 -141 105 l-30 28 55 -26 c30 -14 69 -33 85 -42z m-361 32 c3
-8 1 -15 -4 -15 -6 0 -10 7 -10 15 0 8 2 15 4 15 2 0 6 -7 10 -15z m96 -30
c10 -12 10 -15 -3 -15 -8 0 -20 7 -27 15 -10 12 -10 15 3 15 8 0 20 -7 27 -15z
m-390 -32 c0 -8 -9 -7 -30 5 -39 22 -39 34 0 19 17 -6 30 -17 30 -24z m575 -3
c10 -12 25 -18 32 -16 7 3 13 1 13 -4 0 -5 9 -12 21 -15 14 -5 17 -10 10 -19
-13 -15 5 -36 31 -36 10 0 18 -7 18 -15 0 -8 -6 -15 -14 -15 -25 0 -238 112
-229 121 7 7 38 13 84 18 9 0 24 -8 34 -19z m-475 -40 c0 -5 -4 -10 -10 -10
-5 0 -10 5 -10 10 0 6 5 10 10 10 6 0 10 -4 10 -10z m200 -5 c10 -12 10 -15
-4 -15 -9 0 -16 7 -16 15 0 8 2 15 4 15 2 0 9 -7 16 -15z m-239 -26 c11 -11
19 -24 17 -28 -2 -4 -13 5 -26 21 -27 33 -22 38 9 7z m409 -71 c48 -23 97 -65
88 -74 -4 -4 -14 -2 -21 4 -16 14 -27 6 -27 -20 0 -23 -22 -23 -51 1 -25 20
-22 24 26 34 l20 4 -20 8 c-11 5 -28 19 -38 32 -10 13 -25 23 -32 23 -8 0 -20
10 -26 22 l-12 22 29 -19 c16 -10 45 -27 64 -37z m-581 -65 c2 -2 -3 -3 -12
-3 -9 0 -22 10 -28 23 l-12 22 24 -20 c13 -11 26 -21 28 -22z m61 -58 c7 -8 8
-15 2 -15 -5 0 -15 7 -22 15 -7 8 -8 15 -2 15 5 0 15 -7 22 -15z m520 6 c0
-14 -18 -23 -30 -16 -6 4 -8 11 -5 16 8 12 35 12 35 0z m-230 -128 c-1 -17 -1
-17 -11 -1 -5 10 -16 15 -24 11 -10 -3 -20 6 -30 31 -24 58 -17 64 25 19 22
-23 40 -50 40 -60z m-89 41 c10 -9 15 -22 12 -30 -3 -8 1 -14 11 -14 9 0 16
-7 16 -16 0 -26 -21 -11 -47 34 -26 43 -23 54 8 26z m-166 -229 c74 -144 116
-241 96 -220 -5 6 -36 66 -68 135 -57 123 -137 265 -154 276 -5 3 -9 11 -9 17
1 28 64 -69 135 -208z m-250 -65 c9 -16 11 -30 6 -30 -11 0 -31 32 -31 49 0
19 9 12 25 -19z m232 -19 c9 -11 20 -18 24 -16 4 3 10 -12 14 -33 4 -20 12
-43 17 -50 6 -7 9 -15 6 -17 -4 -4 -67 80 -92 123 -11 19 13 14 31 -7z m-337
-31 c0 -5 -5 -12 -11 -16 -14 -8 -33 11 -25 25 7 11 36 4 36 -9z m-436 -43 c5
-27 4 -37 -3 -32 -6 3 -11 22 -11 42 0 44 5 41 14 -10z m-454 -298 c0 -11 -4
-17 -10 -14 -5 3 -10 15 -10 26 0 11 5 17 10 14 6 -3 10 -15 10 -26z m417
-111 c-2 -13 -4 -5 -4 17 -1 22 1 32 4 23 2 -10 2 -28 0 -40z m-115 10 c-9 -9
-12 -7 -12 12 0 19 3 21 12 12 9 -9 9 -15 0 -24z m28 -55 c14 -43 71 -156 142
-284 26 -48 48 -89 48 -92 0 -3 -8 -8 -17 -10 -14 -4 -14 -5 3 -6 12 0 27 -8
34 -16 14 -17 21 -14 -90 -40 -84 -20 -106 -29 -136 -57 -18 -16 -24 -17 -30
-6 -13 19 -6 505 6 529 16 28 27 23 40 -18z m2479 -30 c6 -21 14 -83 16 -138
3 -95 3 -97 -6 -35 -5 36 -12 89 -15 118 -3 28 -10 50 -15 46 -5 -3 -9 6 -9
20 0 38 15 32 29 -11z m-135 -108 c13 -26 15 -56 12 -137 -5 -128 -4 -118 -16
-118 -5 0 -7 13 -3 31 3 18 1 34 -5 38 -14 9 -56 216 -48 237 6 15 8 15 26 -1
10 -9 26 -32 34 -50z m-481 -257 c1 -69 -2 -111 -9 -118 -17 -17 -28 112 -19
208 7 68 9 73 17 47 5 -16 10 -78 11 -137z m556 -28 c0 -47 -4 -92 -9 -100 -8
-12 -10 -10 -10 10 0 14 -7 38 -15 53 -14 28 -13 111 2 177 6 23 7 22 19 -15
7 -22 13 -78 13 -125z m78 108 c-3 -8 -6 -5 -6 6 -1 11 2 17 5 13 3 -3 4 -12
1 -19z m-1957 -203 c11 -13 8 -15 -13 -15 -19 0 -25 4 -21 15 4 8 10 15 14 15
4 0 13 -7 20 -15z m-1931 -222 c-27 -46 -49 -71 -49 -57 0 13 57 94 66 94 3 0
-4 -17 -17 -37z m1611 -12 c0 -5 -7 -12 -16 -15 -22 -9 -24 -8 -24 9 0 8 9 15
20 15 11 0 20 -4 20 -9z m-397 -143 c18 -32 17 -32 -18 7 -48 54 -68 90 -29
53 16 -15 37 -42 47 -60z m-1059 -76 c2 -4 1 -14 -4 -22 -7 -11 -11 -11 -24
-1 -9 8 -16 17 -16 22 0 11 37 12 44 1z m729 -127 c3 -29 2 -42 -2 -30 -5 11
-11 43 -14 70 -4 30 -3 42 2 30 4 -11 11 -42 14 -70z m-492 58 c13 -16 12 -17
-3 -4 -10 7 -18 15 -18 17 0 8 8 3 21 -13z m434 -7 c9 -14 25 -67 36 -119 10
-51 26 -114 35 -138 9 -24 22 -64 29 -89 13 -42 13 -37 8 70 l-5 115 28 -44
c40 -66 93 -197 108 -271 20 -94 28 -200 17 -200 -6 0 -27 21 -48 47 -21 26
-90 102 -154 169 -122 129 -199 249 -199 311 0 38 88 172 112 173 10 0 25 -11
33 -24z m-141 -223 c7 -31 119 -253 148 -295 36 -52 17 -44 -49 19 -37 36 -91
79 -120 95 -29 16 -56 34 -59 39 -5 8 4 37 45 142 6 15 15 27 20 27 5 0 12
-12 15 -27z m400 -115 c39 -85 72 -222 80 -328 7 -94 2 -82 -19 41 -8 53 -27
129 -40 170 -48 141 -63 189 -58 189 2 0 19 -33 37 -72z m-540 -50 c-32 -64
-64 -111 -71 -104 -3 3 16 41 43 85 53 90 70 101 28 19z m275 -43 c0 -12 -46
41 -60 70 -6 11 6 2 25 -20 20 -22 36 -44 35 -50z m518 40 c9 -25 -4 -29 -17
-6 -7 15 -7 21 0 21 6 0 13 -7 17 -15z m2249 -10 c0 -14 -1 -25 -2 -25 0 0
-11 11 -24 25 l-23 25 25 0 c21 0 26 -4 24 -25z m133 -58 c11 -18 24 -45 30
-60 10 -26 9 -27 -24 -27 -27 0 -35 4 -35 18 0 10 -6 26 -13 37 -8 11 -17 28
-20 38 -6 15 -3 17 13 12 11 -4 20 -2 20 4 0 18 7 12 29 -22z m-68 -64 c13
-16 12 -17 -3 -4 -17 13 -22 21 -14 21 2 0 10 -8 17 -17z m-2281 -163 c0 -5
-4 -10 -10 -10 -5 0 -10 5 -10 10 0 6 5 10 10 10 6 0 10 -4 10 -10z m56 -45
c18 -15 18 -15 -10 -13 -16 2 -31 9 -34 16 -5 17 20 15 44 -3z m-300 -75 c14
-21 24 -45 22 -52 -5 -14 -58 59 -58 79 0 21 8 15 36 -27z m277 10 c-3 -12 -8
-19 -11 -16 -5 6 5 36 12 36 2 0 2 -9 -1 -20z m-273 -97 c0 -22 -15 -15 -33
16 -24 41 -21 48 8 21 14 -13 25 -29 25 -37z m97 -79 c-3 -3 -13 8 -21 25 -23
43 -19 52 5 13 12 -18 19 -35 16 -38z"/>
<path d="M2631 3561 l-24 -6 25 -12 c14 -6 30 -8 37 -4 19 12 -10 29 -38 22z"/>
<path d="M2890 3469 c0 -5 5 -7 10 -4 6 3 10 8 10 11 0 2 -4 4 -10 4 -5 0 -10
-5 -10 -11z"/>
<path d="M1416 3935 c-18 -27 -16 -28 29 -25 33 2 75 25 75 40 0 6 -20 10 -44
10 -36 0 -47 -5 -60 -25z"/>
<path d="M3385 3860 c3 -5 18 -10 33 -9 24 0 25 1 7 9 -28 12 -47 12 -40 0z"/>
<path d="M3495 3863 c-43 -6 -56 -23 -18 -23 17 0 36 7 43 15 7 8 11 14 9 14
-2 -1 -17 -4 -34 -6z"/>
<path d="M3055 3750 c-3 -6 1 -7 9 -4 18 7 21 14 7 14 -6 0 -13 -4 -16 -10z"/>
<path d="M3700 3610 c-13 -8 -13 -10 2 -10 9 0 20 5 23 10 8 13 -5 13 -25 0z"/>
<path d="M2720 1821 c0 -12 5 -21 10 -21 6 0 10 6 10 14 0 8 -4 18 -10 21 -5
3 -10 -3 -10 -14z"/>
<path d="M1771 1719 c-30 -5 -57 -12 -60 -16 -3 -3 9 -3 28 1 18 3 62 6 98 6
40 0 62 4 58 10 -7 12 -48 11 -124 -1z"/>
<path d="M36 1544 c-3 -9 -6 -50 -5 -92 0 -92 13 -71 22 36 5 67 -3 94 -17 56z"/>
<path d="M1230 916 c24 -27 87 -62 97 -53 2 3 -11 10 -29 16 -18 6 -46 24 -63
39 l-30 27 25 -29z"/>
<path d="M3028 873 c-41 -57 -58 -88 -30 -53 l20 24 25 -56 c14 -30 30 -59 36
-62 18 -11 13 13 -9 44 l-20 28 31 26 c17 14 35 26 40 26 5 0 9 5 9 10 0 14
-46 60 -59 60 -5 0 -24 -21 -43 -47z"/>
<path d="M2390 839 c-14 -26 -6 -65 16 -73 14 -5 15 -4 4 9 -7 8 -10 30 -8 50
5 41 3 43 -12 14z"/>
<path d="M3110 732 c0 -7 9 -22 20 -34 11 -12 20 -17 20 -11 0 16 -39 60 -40
45z"/>
<path d="M2793 621 c-18 -9 -33 -19 -33 -22 0 -8 195 -29 274 -29 38 0 67 2
65 4 -2 2 -45 7 -94 10 -169 12 -186 16 -180 37 4 10 5 18 3 18 -2 -1 -18 -9
-35 -18z"/>
<path d="M2537 563 c4 -63 3 -72 -14 -76 -16 -4 -16 -5 2 -6 23 -2 80 -73 90
-113 4 -16 13 -28 19 -28 12 0 46 -32 61 -59 10 -17 -4 -10 -52 26 -19 14 -34
19 -38 13 -15 -24 -42 -9 -54 30 -6 21 -16 42 -21 45 -5 3 -2 -15 7 -40 8 -25
14 -47 12 -48 -25 -15 -103 -47 -113 -47 -16 0 -31 119 -24 190 4 46 14 41
-117 60 -44 6 -93 13 -110 15 -16 3 -7 -2 20 -10 28 -8 72 -18 99 -23 l49 -7
25 -70 c19 -53 25 -90 25 -152 0 -46 4 -83 8 -83 5 0 9 -7 9 -15 0 -8 -6 -12
-14 -9 -8 3 -23 -5 -34 -17 -26 -27 -59 -21 -124 27 l-48 34 0 -33 c0 -41 -25
-134 -40 -153 -11 -12 29 -14 299 -14 l311 0 1 93 c0 50 3 85 7 77 4 -9 19
-31 33 -50 15 -19 30 -46 35 -60 l8 -25 7 25 c6 20 7 17 6 -15 l-2 -40 90 0
90 0 -3 45 c-2 25 -8 49 -13 55 -5 5 -9 17 -9 27 0 9 -20 49 -45 87 -41 63
-49 70 -86 76 -22 4 -38 9 -35 12 3 3 1 14 -5 24 -8 16 -17 18 -49 13 -43 -7
-49 -1 -24 23 15 15 13 18 -24 32 -22 9 -54 31 -72 49 -18 19 -38 31 -45 28
-18 -7 -32 14 -16 23 8 5 5 13 -10 26 -20 19 -20 19 -13 -10 7 -29 7 -30 -17
-14 -17 12 -27 32 -36 75 l-12 59 6 -72z m128 -193 c-3 -5 -10 -10 -16 -10 -5
0 -9 5 -9 10 0 6 7 10 16 10 8 0 12 -4 9 -10z m33 -144 c23 -25 42 -52 42 -60
0 -20 -33 -9 -61 20 -27 28 -46 31 -52 7 -3 -13 -5 -11 -6 6 -1 17 -5 21 -17
17 -40 -15 -64 -18 -64 -6 0 6 9 14 20 17 29 8 17 18 -22 18 -30 0 -33 -3 -38
-35 l-5 -35 -17 34 c-19 37 -16 51 11 51 9 0 21 4 27 10 5 5 27 13 49 18 50
11 77 -1 133 -62z m-187 -188 c11 -21 11 -22 -4 -9 -10 7 -17 17 -17 22 0 15
9 10 21 -13z"/>
<path d="M3160 610 c0 -5 5 -10 10 -10 6 0 10 5 10 10 0 6 -4 10 -10 10 -5 0
-10 -4 -10 -10z"/>
<path d="M1601 487 c2 -2 20 -14 39 -26 l35 -23 -30 26 c-16 14 -34 26 -39 26
-5 0 -7 -1 -5 -3z"/>
<path d="M2439 473 c6 -10 19 -47 29 -83 17 -57 20 -60 21 -30 0 19 -6 53 -14
75 -18 48 -17 45 -5 45 6 0 10 -6 10 -12 0 -7 9 -24 20 -38 21 -26 27 -22 11
8 -5 9 -12 25 -15 35 -4 11 -16 17 -36 17 -26 0 -29 -3 -21 -17z"/>
<path d="M2255 471 c-10 -18 -52 -170 -44 -166 9 6 69 149 69 164 0 13 -17 14
-25 2z"/>
<path d="M3171 464 c0 -11 3 -14 6 -6 3 7 2 16 -1 19 -3 4 -6 -2 -5 -13z"/>
<path d="M3162 405 c0 -16 2 -22 5 -12 2 9 2 23 0 30 -3 6 -5 -1 -5 -18z"/>
<path d="M1757 369 c28 -29 61 -73 73 -96 12 -24 26 -43 31 -43 4 0 20 -38 34
-84 30 -99 49 -126 89 -129 25 -2 33 4 52 37 13 22 26 62 29 90 4 27 14 65 22
84 13 31 12 36 -3 53 -33 37 -111 65 -304 111 -25 6 -52 16 -60 22 -8 5 8 -15
37 -45z"/>
<path d="M3152 335 c0 -16 2 -22 5 -12 2 9 2 23 0 30 -3 6 -5 -1 -5 -18z"/>
<path d="M938 135 l46 -135 58 0 c32 0 58 1 58 3 -1 9 -188 261 -197 264 -5 2
10 -57 35 -132z"/>
<path d="M1813 50 c4 -8 10 -23 13 -32 4 -10 15 -18 25 -18 24 0 25 0 -13 35
-17 16 -28 23 -25 15z"/>
<path d="M3840 10 c0 -5 5 -10 11 -10 5 0 7 5 4 10 -3 6 -8 10 -11 10 -2 0 -4
-4 -4 -10z"/>
</g>
</svg>
