<?xml version="1.0" standalone="no"?>
<!DOCTYPE svg PUBLIC "-//W3C//DTD SVG 20010904//EN"
 "http://www.w3.org/TR/2001/REC-SVG-20010904/DTD/svg10.dtd">
<svg version="1.0" xmlns="http://www.w3.org/2000/svg"
 width="700.000000pt" height="700.000000pt" viewBox="0 0 700.000000 700.000000"
 preserveAspectRatio="xMidYMid meet">
<metadata>
Created by potrace 1.11, written by Peter Selinger 2001-2013
</metadata>
<g transform="translate(0.000000,700.000000) scale(0.100000,-0.100000)"
fill="#000000" stroke="none">
<path d="M3205 6903 c-100 -6 -322 -35 -390 -50 -179 -40 -397 -102 -480 -137
-16 -7 -70 -30 -120 -51 -108 -46 -284 -136 -343 -176 -24 -16 -45 -29 -48
-29 -8 0 -90 -57 -199 -138 -571 -427 -963 -1045 -1109 -1747 -21 -103 -37
-219 -51 -370 -6 -63 -7 -380 -1 -420 2 -16 7 -61 10 -100 3 -38 8 -79 10 -90
2 -11 7 -40 10 -65 3 -25 8 -54 10 -65 25 -127 39 -187 50 -225 8 -25 24 -81
36 -125 34 -118 122 -333 195 -473 199 -382 508 -743 850 -995 28 -20 55 -40
60 -45 6 -4 33 -23 60 -42 28 -18 51 -34 53 -36 2 -1 -28 -40 -65 -87 -37 -47
-93 -126 -123 -176 -30 -50 -65 -106 -77 -124 -86 -125 -107 -178 -107 -279 0
-57 6 -78 36 -140 46 -93 166 -213 273 -274 144 -82 288 -145 435 -192 76 -24
282 -78 325 -85 17 -3 68 -12 115 -21 47 -8 108 -18 135 -22 28 -3 58 -8 68
-10 10 -2 48 -6 85 -9 37 -4 78 -8 92 -10 107 -16 489 -23 705 -12 132 7 176
10 270 22 22 2 63 7 90 10 67 8 264 43 349 62 37 8 75 17 85 18 9 2 16 4 16 5
0 1 8 3 17 5 32 6 173 47 208 60 19 8 69 26 110 41 241 90 462 247 543 385 76
130 70 253 -22 391 -26 40 -65 102 -86 138 -59 99 -121 187 -196 277 l-68 81
27 21 c15 11 61 46 102 77 226 171 464 422 627 664 227 335 391 724 458 1085
17 92 35 220 42 295 15 160 8 551 -12 650 -2 13 -7 42 -10 65 -45 319 -169
681 -336 977 -140 250 -279 431 -493 643 -315 314 -661 535 -1065 680 -180 65
-473 134 -634 150 -37 3 -78 8 -90 11 -29 5 -367 11 -432 7z"/>
</g>
</svg>
