<?xml version="1.0" standalone="no"?>
<!DOCTYPE svg PUBLIC "-//W3C//DTD SVG 20010904//EN"
 "http://www.w3.org/TR/2001/REC-SVG-20010904/DTD/svg10.dtd">
<svg version="1.0" xmlns="http://www.w3.org/2000/svg"
 width="700.000000pt" height="700.000000pt" viewBox="0 0 700.000000 700.000000"
 preserveAspectRatio="xMidYMid meet">
<metadata>
Created by potrace 1.14, written by Peter Selinger 2001-2017
</metadata>
<g transform="translate(0.000000,700.000000) scale(0.100000,-0.100000)"
fill="#000000" stroke="none">
<path d="M713 6978 c-27 -30 -191 -278 -230 -349 -18 -31 -55 -92 -84 -135
-52 -80 -294 -563 -342 -685 -20 -49 -29 -98 -37 -185 -10 -128 -19 -1304 -10
-1304 4 0 31 55 60 122 225 504 661 1039 1076 1318 444 300 859 433 1494 482
174 13 930 17 973 5 33 -9 36 -40 11 -124 -35 -121 10 -195 187 -304 l96 -59
7 -142 c10 -185 17 -202 93 -224 83 -23 90 -32 95 -119 5 -82 15 -99 65 -120
30 -13 33 -18 33 -55 0 -23 4 -49 10 -59 18 -34 83 -51 192 -51 56 0 99 2 96
5 -3 3 -49 12 -103 20 -60 9 -106 22 -117 32 -29 26 -21 36 11 12 26 -19 39
-21 122 -17 81 4 94 7 107 26 23 36 44 28 36 -13 l-6 -34 56 30 c85 46 211 89
262 89 25 0 62 -9 84 -20 55 -28 99 -26 150 9 53 36 101 96 142 178 30 61 32
72 33 186 2 122 18 231 36 242 24 15 145 -179 163 -260 6 -29 6 -29 -9 -10
-13 17 -17 18 -25 5 -17 -27 -23 -164 -18 -400 l5 -237 -121 -78 c-279 -181
-812 -518 -951 -602 -260 -156 -548 -303 -944 -483 -120 -54 -156 -80 -113
-80 85 0 694 270 998 443 95 54 185 93 237 102 37 7 37 8 21 27 -17 18 -17 20
2 38 23 23 183 120 198 120 6 0 -2 -11 -19 -25 -16 -13 -24 -24 -17 -25 26 0
54 22 68 56 12 28 20 34 44 34 20 0 33 6 37 18 8 22 34 52 45 52 4 0 5 -12 2
-26 -6 -24 -5 -25 14 -15 11 6 22 21 24 33 3 24 44 57 157 127 39 25 105 75
147 113 91 80 124 92 43 14 -68 -64 -145 -160 -259 -323 -47 -67 -87 -120 -89
-118 -2 3 24 48 59 100 35 52 60 98 58 101 -8 7 -69 -56 -139 -144 -61 -76
-72 -98 -41 -88 9 3 -9 -18 -41 -48 -69 -64 -211 -140 -262 -140 -22 0 -35 -5
-35 -13 0 -7 -10 -19 -22 -27 -38 -25 -199 -74 -276 -85 -47 -6 -94 -21 -132
-40 -33 -17 -74 -31 -93 -31 -32 0 -57 -14 -57 -33 0 -5 9 -7 21 -4 16 4 18 3
8 -9 -6 -8 -25 -14 -41 -14 -41 0 -150 -59 -363 -196 -99 -63 -234 -142 -300
-175 -105 -53 -173 -91 -338 -191 -22 -13 -45 -35 -53 -50 -9 -18 -32 -33 -71
-48 -113 -42 -229 -72 -300 -77 -52 -4 -73 -10 -73 -19 0 -32 -81 -48 -330
-64 -294 -19 -428 -38 -415 -61 4 -5 95 -9 205 -9 109 0 206 -3 215 -6 8 -4
22 -19 30 -35 30 -58 24 -58 -645 -23 -292 15 -494 29 -565 41 -37 6 -31 8 72
30 129 27 542 139 783 212 237 71 321 91 388 91 54 0 132 21 132 36 0 4 -21 4
-47 1 l-48 -5 50 23 c47 23 124 39 294 65 70 10 166 50 141 58 -6 2 -32 -1
-57 -7 -25 -7 -47 -10 -49 -8 -3 2 109 48 248 102 139 54 278 110 308 126 129
66 -28 21 -600 -170 -727 -244 -965 -316 -1399 -425 -511 -129 -565 -140 -598
-122 -58 30 -103 96 -103 150 0 13 -18 50 -40 82 -22 33 -40 69 -40 82 0 26
-17 63 -34 74 -18 12 -29 9 -22 -7 8 -22 -9 -18 -40 8 -22 20 -25 27 -16 44 8
14 8 31 1 56 -12 43 -29 58 -29 25 0 -13 -5 -30 -10 -38 -7 -11 -10 -4 -10 26
0 50 34 106 70 114 37 9 36 40 -3 96 -34 50 -80 85 -93 71 -4 -4 3 -21 16 -39
29 -39 18 -35 -94 36 -99 62 -126 69 -126 33 0 -28 36 -63 107 -106 71 -43 86
-96 67 -235 -6 -40 -11 -49 -38 -60 -50 -22 -124 -115 -110 -138 6 -10 55 15
73 36 17 20 55 20 85 1 13 -9 40 -15 59 -13 19 1 43 -5 53 -13 27 -22 51 -88
59 -163 4 -38 15 -88 25 -112 27 -62 85 -122 130 -134 48 -13 49 -17 101 -270
22 -107 62 -282 90 -388 28 -107 49 -198 47 -203 -2 -5 -30 65 -62 156 -63
176 -71 193 -82 183 -10 -10 52 -242 116 -440 57 -173 134 -354 167 -390 19
-21 18 -21 -61 -4 -37 7 -63 19 -68 29 -4 9 -12 25 -17 35 -4 9 -17 17 -27 17
-26 0 -32 -60 -9 -85 32 -35 190 -55 213 -27 6 6 12 28 14 47 l4 35 13 -30
c31 -72 45 -95 82 -140 21 -26 51 -56 65 -68 24 -19 27 -19 36 -3 6 10 16 15
28 11 27 -8 30 23 15 138 -8 56 -17 125 -20 152 l-6 50 21 -25 c34 -38 101
-179 102 -212 1 -20 5 -27 15 -24 7 3 30 -10 51 -29 20 -19 29 -32 20 -29 -34
12 -32 -25 4 -79 91 -136 404 -447 452 -447 9 0 16 3 16 6 0 4 -51 55 -114
115 -148 142 -347 371 -334 385 3 2 38 -37 79 -88 66 -83 271 -297 357 -371
25 -22 32 -37 32 -64 0 -48 13 -67 64 -97 25 -14 48 -35 51 -46 3 -11 5 -74 3
-139 -2 -66 0 -123 5 -127 17 -18 30 21 42 126 8 78 16 116 28 127 16 16 15
20 -21 57 l-37 39 50 -33 c74 -50 143 -104 122 -96 -76 26 -87 14 -30 -33 67
-55 183 -109 183 -84 0 4 -12 20 -27 36 l-28 28 59 -30 c61 -33 104 -39 124
-19 20 20 14 42 -24 87 l-37 42 37 -6 c20 -4 36 -4 36 0 0 13 -24 51 -81 132
-33 44 -59 83 -59 85 0 2 17 2 38 0 24 -2 48 4 69 17 33 21 90 97 80 107 -3 3
-23 -4 -46 -15 -51 -26 -61 -27 -33 -1 28 26 28 53 0 98 l-22 36 43 -42 c45
-44 61 -51 61 -29 0 19 -109 182 -160 239 -23 27 -40 48 -37 48 3 0 36 -13 73
-29 79 -33 158 -55 259 -70 177 -27 235 -66 275 -185 18 -54 34 -81 75 -123
59 -61 90 -67 111 -23 7 14 27 56 45 93 18 37 37 71 42 74 16 10 57 -45 57
-75 0 -41 -14 -56 -44 -48 -24 6 -25 4 -20 -21 4 -23 0 -31 -25 -45 -19 -11
-31 -25 -31 -38 0 -12 -19 -40 -42 -64 -24 -23 -31 -28 -17 -11 39 44 53 75
36 75 -26 0 -103 -60 -222 -173 l-119 -114 32 -104 c18 -57 37 -140 42 -184
12 -98 18 -115 35 -115 36 0 27 135 -20 286 -30 98 -30 97 0 131 l25 28 -16
-33 c-15 -30 -14 -37 7 -100 24 -72 60 -151 90 -194 11 -14 19 -37 19 -50 0
-41 23 -63 69 -63 54 0 72 19 130 136 39 81 50 94 73 97 53 6 352 -144 418
-209 44 -44 65 -33 57 29 -9 77 -22 97 -75 111 -61 16 -319 141 -375 181 -32
22 -62 34 -109 40 -36 5 -77 14 -91 19 -15 6 -29 6 -32 1 -14 -23 64 -60 129
-60 l28 0 -23 -19 c-12 -10 -34 -42 -48 -72 -22 -46 -30 -54 -57 -57 -35 -3
-74 30 -105 90 -32 63 -26 84 44 154 53 53 66 61 89 57 38 -7 88 43 88 87 0
27 3 30 20 25 15 -5 20 -2 20 13 0 11 12 37 27 58 67 97 81 121 92 154 7 20
37 58 73 92 60 55 61 57 54 97 -7 49 7 67 83 106 67 33 85 32 129 -11 56 -55
151 -120 226 -155 79 -37 172 -48 240 -29 43 12 46 11 90 -20 26 -19 51 -30
61 -27 37 15 48 121 16 149 -12 10 -26 46 -36 95 -55 257 -67 303 -100 368
-19 38 -50 92 -68 119 -26 40 -32 60 -32 101 0 57 18 90 42 76 8 -4 36 -4 61
0 26 5 118 17 204 27 l157 18 5 -20 c3 -12 6 -45 6 -75 0 -63 6 -62 26 6 13
47 14 44 10 -75 -2 -77 -8 -128 -15 -135 -7 -7 -33 -19 -59 -27 -86 -28 -109
-92 -76 -214 21 -75 35 -94 26 -35 -4 24 -7 62 -7 84 l0 40 59 1 c65 2 77 11
70 58 -5 34 8 62 24 53 15 -10 23 -82 11 -115 -8 -24 -21 -35 -57 -48 -56 -20
-77 -38 -67 -54 5 -8 22 -10 50 -6 48 8 55 0 55 -59 0 -79 29 -85 93 -20 43
43 48 45 102 45 55 0 58 2 114 55 32 30 63 55 70 55 7 0 31 -11 54 -24 23 -13
118 -54 211 -91 212 -83 306 -131 380 -190 31 -26 59 -45 61 -43 3 2 0 20 -5
39 -15 52 -13 62 9 49 11 -5 45 -10 76 -10 65 0 99 -16 197 -93 44 -34 88 -59
126 -71 61 -18 129 -56 101 -56 -26 0 -121 31 -169 55 -25 13 -78 50 -118 84
-77 65 -99 72 -125 43 -21 -23 -21 -32 -2 -32 27 0 73 -29 129 -79 39 -36 72
-54 122 -71 38 -12 128 -49 199 -82 167 -77 169 -77 160 -47 -6 23 -35 53 -87
91 l-23 18 25 21 25 21 13 -33 c24 -60 82 -105 82 -64 0 21 -46 112 -78 154
-20 27 -27 30 -33 19 -5 -10 -18 -14 -33 -11 -21 4 -23 2 -18 -23 4 -21 2 -26
-9 -22 -93 39 -120 49 -156 58 -28 7 -68 32 -117 74 -79 67 -93 74 -201 100
-38 9 -144 52 -235 95 -91 44 -219 100 -284 125 -65 26 -135 56 -155 66 -150
79 346 -113 527 -204 71 -36 74 -36 181 -34 l108 2 76 -52 c75 -52 229 -132
254 -132 7 0 13 5 13 11 0 6 9 9 20 6 11 -3 23 -1 26 4 13 22 -76 230 -110
258 -14 12 -16 10 -16 -16 0 -43 27 -126 50 -156 25 -31 25 -37 3 -37 -49 0
-208 103 -234 151 -11 21 -10 21 25 15 33 -6 36 -5 36 16 0 26 -55 128 -69
128 -5 0 -7 -10 -4 -22 4 -18 -8 -10 -51 32 l-57 55 -82 0 -82 0 -32 95 c-42
123 -72 154 -141 144 -105 -15 -195 -65 -186 -102 3 -10 -3 -26 -15 -36 -64
-58 30 -133 196 -158 52 -7 76 -16 83 -28 5 -10 27 -25 48 -33 30 -12 41 -23
45 -46 5 -21 17 -36 44 -51 71 -39 -9 -9 -152 57 -223 103 -421 176 -548 202
-67 14 -100 3 -95 -32 2 -16 29 -35 103 -75 103 -54 87 -64 -19 -11 -32 16
-67 29 -78 29 -27 0 -89 -34 -118 -65 -30 -32 -60 -50 -60 -36 0 5 18 31 40
56 89 103 93 158 7 100 -30 -21 -37 -23 -37 -10 0 27 20 55 47 66 21 8 24 14
18 37 l-7 27 29 -27 c34 -33 74 -44 103 -28 18 9 21 19 18 46 -2 19 -1 34 4
34 11 0 28 -36 28 -61 0 -20 3 -21 43 -14 23 5 56 7 73 7 43 -2 58 18 52 73
-7 62 -21 75 -78 75 l-47 0 -6 39 c-5 40 -54 158 -61 150 -3 -2 0 -40 5 -83 7
-53 7 -82 0 -89 -12 -12 -31 31 -31 70 0 17 -7 27 -20 30 -12 3 -19 8 -18 12
35 65 68 140 68 153 0 9 4 20 10 23 6 3 10 -4 10 -17 0 -68 136 -245 206 -268
37 -13 39 -18 24 -69 -11 -41 -8 -46 18 -32 33 18 45 64 38 144 -4 39 -10 75
-15 80 -5 5 -15 -10 -24 -35 l-14 -43 -7 60 c-4 33 -9 78 -11 100 l-4 40 11
-32 c17 -50 28 -40 28 25 0 79 18 184 35 201 11 11 16 9 29 -17 13 -25 34 -42
52 -42 2 0 14 15 25 33 l21 32 -5 -57 c-3 -31 -11 -66 -18 -79 -11 -21 -13
-21 -24 -6 -15 21 -29 22 -45 2 -19 -23 14 -55 55 -55 60 0 60 -2 60 390 l0
357 27 -44 c38 -59 74 -132 82 -165 8 -34 -9 -77 -58 -148 -20 -29 -36 -61
-36 -72 0 -12 14 -61 31 -110 25 -73 29 -99 24 -141 -5 -42 -2 -58 15 -85 13
-21 26 -32 35 -28 11 4 15 -7 17 -46 4 -70 33 -92 119 -90 62 2 62 2 43 -19
-18 -20 -18 -20 32 -14 59 8 84 -2 165 -68 106 -86 174 -124 246 -137 108 -18
344 -39 528 -45 94 -4 181 -8 194 -11 l24 -5 -22 -15 c-27 -19 -27 -34 0 -34
44 0 59 18 59 69 l0 48 -97 7 c-54 3 -232 13 -397 21 l-298 16 -80 72 c-97 88
-177 137 -288 178 -47 17 -96 40 -109 52 -42 39 -141 284 -141 351 0 33 28 96
45 102 7 3 34 -6 59 -21 25 -15 50 -24 56 -20 30 18 -7 112 -109 280 -40 66
-93 162 -118 213 -43 87 -45 97 -41 155 3 34 22 112 42 172 48 143 184 420
230 470 33 34 39 37 75 31 68 -11 172 -47 192 -67 26 -26 50 -25 316 16 281
42 467 59 555 50 73 -7 108 4 108 34 0 20 -39 41 -78 41 l-26 0 22 16 c52 36
3 47 -69 15 -64 -28 -419 -71 -586 -71 -50 0 -67 -4 -83 -20 l-20 -20 -103 32
c-81 26 -96 33 -72 36 31 4 55 18 55 33 0 4 -25 45 -56 90 -76 110 -128 220
-122 259 4 24 1 30 -13 30 -25 0 -59 48 -118 165 -58 117 -94 220 -88 252 3
16 -1 23 -16 25 -32 5 -67 81 -67 144 0 45 -2 52 -16 47 -10 -4 -22 1 -30 12
-10 14 -22 17 -55 12 l-41 -5 25 26 c14 15 33 44 42 65 8 20 19 37 24 37 5 0
39 -45 75 -99 37 -54 74 -105 83 -112 14 -12 15 -11 8 11 -8 29 -78 151 -111
195 -13 17 -36 58 -51 90 -23 51 -27 73 -28 152 0 50 3 95 7 99 5 4 17 -1 28
-11 12 -11 51 -35 88 -55 44 -24 68 -43 70 -57 2 -14 11 -20 32 -20 16 0 55
-12 88 -26 76 -35 173 -44 542 -52 312 -7 496 -19 550 -37 l35 -11 -33 -9
c-18 -5 -30 -13 -27 -18 10 -17 68 -11 103 10 27 16 33 26 30 48 -4 38 -47 56
-203 84 -121 21 -157 23 -512 23 -369 0 -382 1 -409 21 -36 27 -40 35 -57 131
-8 45 -32 119 -52 165 -20 46 -39 91 -42 100 -6 20 10 22 247 38 181 11 277
29 296 55 21 28 -2 59 -108 145 -96 79 -118 101 -79 80 14 -7 22 -7 27 1 7 12
-91 113 -191 197 l-50 42 100 1 c55 0 109 4 120 9 19 7 18 9 -8 19 -87 34
-256 37 -305 5 -13 -9 -29 -13 -36 -11 -15 6 -52 74 -44 83 4 3 90 -6 192 -20
258 -36 257 -36 327 31 l36 34 -18 -68 c-10 -37 -18 -79 -18 -93 0 -24 0 -24
14 -6 14 19 18 16 84 -47 43 -41 78 -67 93 -68 48 -2 84 3 129 17 56 18 149
75 132 81 -7 3 -53 -5 -102 -16 -120 -28 -143 -27 -185 9 -51 45 -80 110 -72
163 11 78 -28 116 -232 223 -103 53 -152 100 -152 142 1 15 7 56 15 92 9 42
10 68 4 75 -7 6 -13 5 -19 -5 -20 -30 -51 -124 -57 -169 -9 -73 -13 -75 -71
-28 -28 23 -80 58 -114 78 l-63 35 3 68 c4 75 -6 94 -63 123 -38 20 -45 30
-45 70 0 41 9 63 26 63 9 0 14 -11 14 -30 0 -35 23 -41 40 -11 14 28 12 57 -6
75 -12 12 -37 16 -103 16 -138 0 -192 -32 -122 -72 20 -11 33 -29 40 -54 6
-21 30 -58 54 -83 54 -56 100 -179 63 -165 -19 7 -38 -31 -66 -134 -13 -47
-33 -96 -47 -112 -13 -16 -22 -34 -21 -41 2 -8 -15 -19 -40 -27 -30 -10 -47
-23 -55 -41 -17 -40 -38 -61 -61 -60 -20 0 -20 1 2 9 25 11 41 45 34 72 -4 16
-7 16 -28 -7 -15 -16 -34 -25 -53 -25 -32 0 -47 -15 -43 -42 2 -11 -3 -18 -12
-18 -8 0 -27 -17 -42 -37 l-26 -38 6 40 c5 34 4 37 -7 21 -33 -51 -61 -76
-102 -91 -47 -19 -75 -15 -75 10 0 9 -9 15 -22 15 -13 0 -66 30 -118 66 -208
143 -335 225 -432 280 -276 153 -308 177 -308 230 0 45 -15 43 -31 -3 l-12
-38 -14 48 c-7 26 -18 47 -23 47 -21 0 -9 18 20 30 35 15 30 30 -10 30 -36 0
-41 16 -30 86 5 32 7 60 5 62 -3 3 -13 -3 -24 -12 -18 -17 -19 -16 -26 14 -4
17 -12 29 -18 27 -19 -6 -60 -117 -61 -164 -1 -50 15 -70 77 -94 23 -9 43 -24
45 -32 4 -22 -25 -35 -116 -52 -44 -8 -111 -26 -151 -39 -109 -38 -144 -40
-282 -17 -203 34 -410 45 -824 44 -721 0 -913 -44 -1295 -294 -317 -207 -433
-318 -752 -714 -202 -252 -261 -342 -343 -525 -26 -57 -53 -113 -60 -123 -13
-18 -14 -16 -25 24 -24 88 20 277 135 585 113 301 240 577 374 814 75 132 88
170 50 149 -17 -9 -20 -8 -17 3 3 7 17 14 32 16 31 4 69 49 186 222 43 63 90
126 104 139 35 33 33 47 -9 61 -48 16 -94 -1 -138 -50 -49 -53 -155 -212 -183
-275 -22 -48 -74 -110 -74 -89 0 11 99 174 160 264 41 61 80 133 80 150 0 17
-15 12 -37 -12z m3136 -438 c47 -48 61 -50 61 -11 0 17 4 32 9 35 10 7 111
-22 129 -36 10 -9 9 -15 -5 -30 -18 -20 -17 -20 27 -13 40 6 54 2 127 -35 100
-50 355 -218 463 -305 92 -74 102 -80 153 -89 21 -4 41 -14 44 -22 9 -23 -2
-26 -43 -10 -162 61 -229 82 -424 131 -229 57 -324 74 -332 59 -3 -5 1 -67 9
-139 8 -71 15 -183 16 -247 l2 -117 22 20 21 21 7 -31 c8 -38 25 -50 25 -19 0
14 6 33 14 43 12 17 16 16 63 -28 44 -41 61 -69 94 -154 11 -30 49 -31 49 -3
0 12 -9 38 -20 60 -11 22 -20 42 -20 45 0 4 17 5 38 3 l37 -3 5 -85 c3 -47 9
-91 13 -97 6 -9 36 -13 92 -13 93 0 105 -7 121 -75 11 -47 34 -75 60 -75 30 0
30 15 -1 65 -28 46 -34 88 -10 79 17 -7 18 5 6 58 -7 28 -6 35 4 32 7 -3 29 8
48 25 l35 31 4 -64 c4 -71 22 -104 44 -85 34 28 3 166 -59 270 -24 40 -46 61
-82 81 -56 31 -85 35 -85 13 0 -11 -12 -15 -49 -15 -50 0 -63 -9 -109 -76 -11
-17 -12 -16 -7 11 3 18 23 47 50 72 25 23 45 44 45 47 0 3 -13 6 -30 6 -22 0
-36 -9 -57 -37 -57 -75 -80 -93 -117 -93 -19 0 -39 6 -43 14 -11 19 -48 36
-77 36 -16 0 -31 9 -40 23 -15 22 -64 332 -55 341 7 7 277 -61 507 -128 107
-31 224 -60 260 -64 l67 -7 -2 -45 c-1 -25 -4 -79 -8 -120 l-7 -75 51 -79 c28
-43 48 -83 45 -88 -3 -4 -18 -8 -33 -8 -16 0 -46 -14 -71 -32 -73 -57 -112
-76 -163 -83 -81 -12 -74 -55 9 -55 62 0 124 26 167 70 44 46 73 51 87 15 9
-22 15 -25 64 -25 67 0 86 7 86 31 0 14 -7 19 -29 19 -49 0 -63 23 -55 91 l7
59 -51 46 c-57 51 -70 86 -52 139 25 77 116 102 164 45 34 -41 45 -86 53 -205
13 -232 -47 -448 -121 -429 -21 5 -23 3 -19 -20 4 -21 0 -28 -23 -36 -24 -9
-36 -7 -81 16 -48 24 -61 26 -133 22 -70 -4 -86 -9 -124 -36 -70 -50 -156 -56
-156 -11 0 16 -3 18 -19 9 -11 -5 -34 -10 -51 -10 -33 0 -37 6 -62 90 -9 30
-21 48 -38 56 -14 6 -65 32 -115 57 -68 34 -272 107 -301 107 -2 0 -4 55 -4
123 0 191 -25 251 -121 286 -32 12 -45 23 -47 39 -3 19 -10 22 -46 22 -27 0
-48 6 -56 15 -22 26 -23 102 -5 211 12 67 15 108 9 114 -27 27 -303 50 -605
51 -185 0 -218 3 -189 12 20 7 36 20 38 31 4 17 0 18 -34 12 -22 -4 -93 -11
-158 -15 -98 -7 -122 -12 -133 -27 -7 -10 -13 -21 -13 -25 0 -14 -66 -29 -237
-54 -95 -14 -269 -45 -386 -69 -117 -25 -250 -50 -297 -56 -48 -6 -109 -22
-140 -37 -56 -26 -55 -44 2 -24 17 6 33 10 34 8 6 -6 -299 -165 -330 -173 -26
-6 -28 -5 -21 15 3 12 2 21 -4 21 -17 0 -41 -30 -41 -52 0 -11 -15 -34 -32
-51 -70 -65 -238 -180 -238 -162 0 4 5 15 10 26 6 10 7 19 3 19 -21 0 -56 -36
-73 -74 -9 -22 -69 -96 -131 -164 -228 -247 -354 -402 -508 -627 -83 -120
-128 -175 -143 -175 -15 0 -8 60 16 122 74 195 138 331 196 418 155 232 354
491 494 645 226 248 621 515 893 604 148 48 359 74 708 84 124 4 139 3 87 -5
-35 -5 -60 -13 -55 -18 8 -7 324 -30 421 -30 50 0 53 1 47 21 -7 22 -7 22 151
16 100 -3 198 -13 264 -26 156 -31 222 -28 365 19 66 21 125 39 132 40 7 0 30
-18 52 -40z m1645 -101 c-14 -57 -27 -125 -27 -151 -1 -39 -3 -45 -14 -36 -32
26 -35 48 -15 91 11 23 32 82 48 130 37 116 42 97 8 -34z m-5035 31 c-13 -23
-25 -37 -27 -31 -4 13 38 84 45 77 3 -2 -5 -23 -18 -46z m5217 -36 c65 -39
155 -107 176 -131 12 -14 -1 -15 -132 -11 -81 3 -155 10 -167 16 -60 32 -27
162 40 162 13 0 50 -16 83 -36z m441 -115 c77 -43 107 -69 51 -46 -43 18 -200
105 -213 118 -15 16 81 -28 162 -72z m-5728 27 c-13 -28 -29 -35 -29 -12 0 15
30 50 37 43 2 -3 -2 -16 -8 -31z m5655 -83 c15 -8 42 -23 60 -34 l31 -19 -110
1 c-60 0 -103 3 -95 6 30 11 48 34 42 55 -4 18 -2 19 19 13 13 -4 37 -14 53
-22z m-670 -23 c9 -27 32 -50 106 -103 52 -37 158 -123 234 -190 77 -67 184
-160 239 -207 55 -46 94 -86 87 -88 -19 -7 -307 18 -408 34 -51 9 -100 13
-108 10 -32 -12 -9 -82 73 -219 19 -32 33 -60 30 -63 -8 -9 -96 109 -139 189
-24 42 -56 100 -71 127 -16 29 -39 55 -52 60 -14 5 -59 43 -102 83 -90 86
-118 102 -192 111 -63 8 -111 30 -111 51 0 12 14 15 64 15 72 0 90 11 101 60
8 38 31 50 95 50 65 0 87 12 95 52 16 75 40 86 59 28z m-5100 -116 c-37 -76
-70 -132 -72 -126 -4 13 128 275 136 268 3 -3 -26 -67 -64 -142z m5369 119
c-13 -2 -35 -2 -50 0 -16 2 -5 4 22 4 28 0 40 -2 28 -4z m-53 -116 c0 -6 -13
2 -30 18 -16 16 -30 30 -30 33 0 2 14 -6 30 -18 17 -12 30 -26 30 -33z m220
-192 c30 -30 52 -55 49 -55 -2 0 -29 25 -59 55 -30 30 -52 55 -49 55 2 0 29
-25 59 -55z m105 5 c21 -22 37 -40 34 -40 -3 0 -23 18 -44 40 -21 22 -37 40
-34 40 3 0 23 -18 44 -40z m-5807 -200 c-50 -128 -77 -165 -43 -58 20 62 85
202 91 196 2 -3 -20 -64 -48 -138z m5893 34 c18 -19 27 -32 18 -29 -14 5 -65
65 -56 65 2 0 19 -16 38 -36z m-1270 -25 c30 -32 39 -56 17 -43 -40 22 -79 74
-57 74 6 0 24 -14 40 -31z m-157 -15 c22 -21 20 -41 -2 -21 -17 15 -18 12 -17
-61 0 -49 -5 -86 -15 -102 -12 -22 -15 -23 -18 -7 -3 14 -10 17 -28 13 -13 -4
-24 -5 -24 -3 0 17 45 157 56 175 17 26 27 27 48 6z m87 -61 c-5 -16 -16 -44
-25 -63 l-16 -35 6 39 c7 50 21 86 33 86 6 0 6 -11 2 -27z m1469 -38 c0 -20
-24 -25 -163 -30 l-132 -4 120 12 c127 14 145 19 145 44 0 13 3 13 15 3 8 -7
15 -18 15 -25z m-504 -20 c15 -11 16 -14 3 -15 -8 0 -24 7 -35 15 -15 11 -16
14 -3 15 8 0 24 -7 35 -15z m110 -307 c9 -27 14 -52 11 -55 -8 -7 -55 28 -101
76 -30 31 -34 39 -18 34 11 -3 31 2 44 11 21 15 24 15 35 0 7 -9 20 -39 29
-66z m-1537 42 c56 -28 101 -69 101 -91 0 -28 -36 -59 -68 -59 -55 0 -111 97
-89 155 8 19 10 19 56 -5z m-4149 -50 c0 -11 -4 -20 -10 -20 -5 0 -10 9 -10
20 0 11 5 20 10 20 6 0 10 -9 10 -20z m5571 -56 c18 -19 27 -32 18 -29 -14 5
-65 65 -56 65 2 0 19 -16 38 -36z m-1241 -89 c0 -16 -35 -47 -43 -38 -11 10
-8 38 4 50 14 14 39 6 39 -12z m93 -72 c-7 -2 -21 -2 -30 0 -10 3 -4 5 12 5
17 0 24 -2 18 -5z m1003 -433 c7 -14 32 -72 55 -130 68 -167 276 -574 354
-695 11 -16 -34 21 -100 84 -171 163 -223 197 -239 155 -12 -31 -6 -148 15
-288 11 -77 18 -160 15 -182 -3 -23 -30 -92 -60 -155 -95 -200 -174 -480 -145
-515 7 -8 9 -28 6 -49 -4 -25 -2 -35 7 -35 22 0 28 -106 20 -387 l-7 -264 -61
114 c-81 152 -83 154 -95 142 -12 -12 0 -66 39 -169 13 -37 19 -69 15 -85 l-7
-26 -23 30 c-42 51 -50 112 -50 360 0 248 9 313 46 322 24 7 25 10 53 233 13
102 24 167 25 144 2 -67 13 -134 22 -134 19 0 5 272 -17 343 -8 27 -21 11 -30
-36 l-7 -42 -9 30 c-5 17 -10 75 -12 130 -3 57 -2 80 2 52 8 -55 26 -63 30
-14 5 52 -19 110 -51 125 -23 11 -28 19 -25 45 2 27 7 31 26 29 12 -2 22 2 22
9 0 21 -52 214 -60 223 -5 4 -15 -5 -24 -20 l-16 -29 6 47 c5 39 3 48 -14 57
-10 6 -29 37 -42 71 -12 33 -26 60 -31 60 -17 0 -9 -86 15 -170 37 -128 61
-243 100 -480 44 -271 58 -392 54 -455 l-3 -50 -22 64 c-25 71 -47 101 -74
101 -31 0 -41 -37 -55 -209 -28 -340 -80 -680 -130 -856 -14 -49 -52 -160 -84
-245 -78 -204 -242 -584 -236 -542 12 73 -33 888 -55 999 -11 57 -26 75 -41
49 -18 -32 -28 -15 -28 48 0 72 -25 228 -41 259 -23 42 -32 -10 -26 -149 3
-73 2 -159 -3 -190 -16 -97 -129 -311 -202 -381 -45 -44 -91 -61 -184 -69 -43
-4 -91 -13 -106 -20 -14 -8 -42 -40 -61 -71 -46 -75 -85 -112 -209 -198 -107
-74 -126 -95 -85 -95 80 0 238 128 328 268 l50 77 -5 -55 c-16 -157 -13 -179
38 -247 80 -107 118 -207 151 -399 18 -111 12 -135 -44 -164 -85 -43 -171 -21
-298 76 l-72 55 88 60 c93 61 201 168 201 197 0 10 -9 23 -20 30 -12 7 -20 23
-20 38 0 23 3 25 26 20 27 -7 26 1 -4 37 -36 42 -72 23 -377 -199 -71 -52
-155 -103 -185 -115 -77 -29 -179 -34 -370 -15 -391 37 -712 118 -966 242
-131 64 -179 109 -269 254 -71 115 -190 344 -199 384 -6 25 -5 28 13 23 12 -3
23 -1 26 3 7 12 -23 40 -44 40 -9 0 -26 7 -37 16 -18 15 -18 15 11 9 36 -8
135 -47 219 -86 l61 -29 -39 2 c-48 4 -58 -15 -19 -35 47 -24 133 -40 218 -40
69 -1 90 3 138 27 77 37 164 118 178 164 12 43 -1 92 -25 92 -8 0 -48 -29 -89
-65 -40 -35 -86 -69 -101 -75 -42 -15 -233 -12 -301 5 -183 48 -327 196 -456
470 -27 57 -49 107 -49 110 0 3 45 5 100 5 122 0 126 -3 184 -139 43 -104 73
-135 121 -127 16 2 50 8 75 12 l45 7 -33 -28 c-45 -38 -43 -74 6 -114 112 -93
261 -92 368 2 63 55 74 86 74 203 l0 96 63 -55 c34 -30 87 -67 117 -82 30 -15
98 -55 150 -88 153 -98 273 -147 321 -132 18 6 21 13 16 45 -3 21 -18 58 -35
82 -37 54 -127 148 -141 148 -20 0 -11 -28 24 -74 19 -26 35 -56 35 -68 0 -12
12 -35 28 -51 l27 -29 -25 7 c-44 13 -79 35 -90 55 -7 13 -21 20 -43 20 l-32
1 28 15 c35 19 36 54 2 126 -14 29 -25 61 -25 71 0 25 26 32 58 17 22 -11 24
-14 10 -17 -25 -6 -23 -15 9 -45 47 -43 160 -93 398 -175 172 -59 300 -93 352
-93 46 0 73 -8 73 -21 0 -21 -81 -95 -285 -259 -338 -273 -403 -347 -358 -409
49 -66 167 -102 333 -100 103 1 110 2 65 11 -160 30 -196 39 -248 58 -61 23
-117 63 -117 85 0 21 64 78 279 248 313 248 362 289 392 327 55 70 46 106 -26
104 -42 -1 -44 0 -24 14 11 8 17 18 12 22 -4 5 -73 25 -153 45 -176 46 -383
116 -459 155 -60 32 -111 39 -111 16 0 -8 38 -34 84 -57 47 -24 83 -45 82 -46
-5 -5 -121 37 -173 64 -35 17 -55 35 -61 53 -12 33 -66 60 -119 60 -24 0 -52
9 -74 25 -20 13 -39 21 -43 18 -3 -3 17 -48 44 -100 47 -90 61 -133 42 -133
-5 0 -31 16 -58 35 -105 75 -99 21 7 -59 67 -51 71 -60 8 -20 -62 39 -129 104
-129 125 0 14 -7 19 -27 19 -28 0 -129 53 -178 94 l-30 25 38 1 c23 0 37 5 37
13 0 21 -22 37 -52 37 -38 0 -36 24 5 43 17 8 64 22 104 31 181 40 475 140
653 221 63 29 124 55 136 59 31 9 47 -16 42 -65 l-4 -41 38 5 c55 7 84 -19 98
-91 21 -98 30 -119 81 -189 28 -37 71 -105 95 -150 52 -95 79 -131 90 -120 4
4 -16 53 -45 110 -64 122 -48 110 42 -33 36 -58 77 -116 91 -129 24 -23 26
-23 26 -5 0 26 -37 102 -99 204 -28 47 -51 91 -51 98 0 7 13 12 31 12 l31 0
-23 -19 -23 -18 34 -18 c50 -26 142 -24 207 4 74 33 81 44 46 77 l-28 26 -125
-7 c-69 -3 -132 -8 -140 -11 -11 -3 -40 30 -91 103 -96 136 -189 291 -189 313
0 18 28 46 74 76 28 18 29 18 40 0 48 -82 84 -93 157 -48 76 48 72 47 60 24
-12 -22 -90 -92 -103 -92 -16 0 -7 -22 20 -46 88 -79 178 -101 272 -65 67 25
144 89 171 142 40 79 48 343 13 442 -8 22 -14 52 -14 67 0 31 35 69 50 54 18
-18 67 -230 98 -424 47 -289 47 -283 16 -320 -15 -17 -62 -58 -104 -90 -114
-87 -133 -110 -90 -110 15 0 20 -7 20 -25 0 -25 0 -25 33 -9 64 32 90 71 42
62 -34 -7 -31 2 13 38 69 57 93 69 103 53 5 -8 9 -132 9 -275 0 -225 2 -263
16 -274 65 -55 196 169 180 306 -4 39 -1 76 14 131 21 79 26 201 12 278 -7 37
-9 31 -26 -70 -37 -226 -76 -370 -95 -349 -18 18 -31 91 -37 199 -6 98 -5 108
8 91 14 -18 15 -18 31 5 23 32 21 72 -3 94 -42 38 -81 232 -95 470 -8 149 -12
164 -40 171 -34 8 -43 58 -18 91 14 19 53 37 163 73 80 26 210 77 290 113 79
36 146 64 148 62 2 -2 -5 -17 -17 -33 -27 -39 -27 -42 8 -42 35 0 47 14 56 63
11 58 36 82 83 81 40 -1 40 -1 35 30 -4 27 6 43 72 126 43 52 121 154 175 225
117 157 179 218 218 213 16 -2 31 -12 38 -28z m-5398 -82 l-13 -23 -3 28 c-2
16 3 35 10 44 12 15 13 14 16 -5 2 -11 -3 -31 -10 -44z m5739 -792 l81 -71
-34 -3 c-45 -4 -142 14 -170 33 -30 19 -72 109 -81 170 l-6 50 64 -54 c35 -29
101 -85 146 -125z m-590 97 c-3 -10 -5 -4 -5 12 0 17 2 24 5 18 2 -7 2 -21 0
-30z m455 -213 c0 -17 -9 -44 -19 -58 l-18 -27 -3 49 c-2 27 0 61 3 74 6 23 8
24 22 9 9 -9 16 -30 15 -47z m-1734 38 c5 -7 15 -30 21 -52 5 -21 22 -55 36
-76 29 -42 44 -140 34 -225 -3 -27 -7 -45 -7 -39 -3 19 -58 36 -91 29 -17 -4
-36 -16 -42 -27 -11 -20 -9 -21 20 -15 23 5 33 3 37 -8 16 -40 -34 -116 -92
-140 -30 -12 -33 -17 -28 -44 6 -28 4 -31 -20 -31 -15 0 -41 8 -59 17 l-32 17
30 6 c28 5 30 9 31 48 1 24 9 51 18 61 9 10 16 23 16 29 0 16 -100 82 -123 82
-11 0 -36 -13 -57 -30 -21 -16 -42 -30 -48 -30 -11 0 -72 91 -72 108 0 19 40
25 59 8 25 -22 32 -21 77 18 21 18 86 66 144 106 58 40 115 82 128 93 25 24
29 55 7 63 -23 9 -67 -12 -230 -111 -83 -51 -162 -98 -175 -105 -25 -12 -25
-12 -5 8 11 11 72 56 135 100 207 145 262 171 288 140z m-528 -312 c0 -20
-263 -146 -276 -133 -10 10 38 39 82 51 27 7 81 29 119 49 77 40 75 39 75 33z
m-350 -174 c0 -9 -44 -32 -58 -32 -9 1 41 39 51 40 4 0 7 -4 7 -8z m180 -32
c0 -17 -56 -46 -210 -111 -177 -75 -337 -129 -535 -179 -192 -49 -255 -58
-255 -36 0 10 16 19 43 26 427 114 619 176 802 260 107 48 155 61 155 40z
m702 -60 c-18 -17 -40 -30 -49 -30 -10 0 -1 11 23 29 51 39 68 39 26 1z m1268
-90 c11 -21 20 -51 20 -65 0 -24 -35 -105 -45 -105 -3 0 -5 47 -5 105 0 58 2
105 5 105 2 0 14 -18 25 -40z m-1689 -240 l30 -45 -38 41 c-21 23 -46 57 -56
75 l-18 34 26 -30 c14 -16 40 -50 56 -75z m-2968 23 c18 -9 27 -18 20 -20 -12
-4 -73 23 -73 32 0 10 21 5 53 -12z m205 10 c-10 -2 -28 -2 -40 0 -13 2 -5 4
17 4 22 1 32 -1 23 -4z m424 -73 c107 -12 120 -17 116 -43 -2 -15 2 -22 14
-22 26 0 32 -10 83 -135 61 -149 66 -165 66 -224 0 -49 24 -111 52 -135 26
-21 27 4 1 59 -13 29 -22 55 -20 57 6 6 98 -184 125 -257 22 -58 19 -55 -42
42 -21 33 -40 58 -43 55 -7 -6 31 -102 64 -162 21 -39 33 -50 52 -50 20 0 30
-12 57 -63 18 -35 33 -73 32 -85 0 -21 -1 -21 -12 -3 -33 51 -45 61 -59 48
-19 -19 16 -80 274 -469 125 -189 225 -343 222 -343 -7 0 -218 171 -363 293
-63 54 -121 97 -129 97 -8 0 4 -25 32 -65 25 -36 46 -68 46 -72 0 -3 -27 20
-61 51 -33 31 -67 56 -75 56 -25 0 11 -50 123 -171 111 -119 139 -157 197
-264 84 -155 221 -325 261 -325 27 0 68 -48 86 -99 16 -44 7 -48 -36 -15 -34
26 -36 31 -31 67 l7 39 -30 -21 c-38 -27 -51 -26 -51 2 0 26 -40 67 -150 152
-201 155 -579 591 -716 824 -24 42 -79 157 -120 256 -42 99 -90 206 -106 239
-26 52 -31 56 -42 40 -13 -17 -14 -16 -20 4 -7 21 -26 31 -26 13 0 -4 11 -101
25 -214 25 -209 42 -426 33 -417 -11 10 -128 352 -193 560 -80 256 -123 448
-131 586 -7 110 -7 110 50 125 36 10 320 2 438 -11z m3977 -172 c-1 -197 -13
-248 -23 -97 -8 113 1 259 15 259 5 0 9 -73 8 -162z m-3016 133 c13 -5 30 -24
37 -41 7 -17 23 -35 35 -40 17 -7 24 -19 28 -57 7 -51 -2 -115 -21 -149 -20
-38 -130 -110 -155 -101 -7 2 14 18 46 36 67 38 97 73 97 111 0 61 -82 82
-108 27 -18 -38 -9 -44 27 -17 l31 21 0 -29 c0 -53 -68 -94 -121 -72 -34 15
-36 23 -9 50 43 43 -14 80 -145 91 -49 4 -98 11 -108 15 -20 7 -63 85 -68 124
-3 18 2 25 21 31 37 11 385 10 413 0z m1770 2 c-7 -2 -21 -2 -30 0 -10 3 -4 5
12 5 17 0 24 -2 18 -5z m-3276 -75 c-2 -13 -4 -5 -4 17 -1 22 1 32 4 23 2 -10
2 -28 0 -40z m3742 -58 c22 0 21 -1 -14 -67 -19 -38 -44 -79 -55 -93 l-20 -25
0 71 c0 39 3 92 6 118 l7 47 26 -25 c15 -15 37 -26 50 -26z m-3712 -107 c-3
-10 -5 -2 -5 17 0 19 2 27 5 18 2 -10 2 -26 0 -35z m2608 -22 c27 -13 34 -20
20 -20 -11 0 -38 8 -60 18 -27 13 -34 20 -20 20 11 0 38 -8 60 -18z m1832 -68
c-3 -10 -5 -4 -5 12 0 17 2 24 5 18 2 -7 2 -21 0 -30z m-1599 0 c-10 -2 -26
-2 -35 0 -10 3 -2 5 17 5 19 0 27 -2 18 -5z m1061 -142 c18 -87 25 -235 11
-260 -11 -22 -15 -23 -92 -16 -73 7 -81 5 -99 -14 -22 -23 -59 -28 -59 -8 0 7
30 58 68 112 53 79 72 100 89 98 19 -2 21 1 16 32 -4 24 1 43 17 69 12 20 25
36 30 36 5 0 13 -22 19 -49z m508 12 c-3 -10 -5 -4 -5 12 0 17 2 24 5 18 2 -7
2 -21 0 -30z m83 -205 c0 -134 -8 -148 -53 -98 -34 38 -34 56 4 222 l24 108
12 -58 c7 -31 12 -110 13 -174z m-113 65 c-3 -10 -5 -2 -5 17 0 19 2 27 5 18
2 -10 2 -26 0 -35z m-4020 -105 c-3 -7 -5 -2 -5 12 0 14 2 19 5 13 2 -7 2 -19
0 -25z m30 -145 c-3 -10 -5 -4 -5 12 0 17 2 24 5 18 2 -7 2 -21 0 -30z m3166
0 c-7 -2 -19 -2 -25 0 -7 3 -2 5 12 5 14 0 19 -2 13 -5z m1464 -69 c-10 -10
-57 36 -57 55 0 11 10 6 32 -16 18 -18 29 -36 25 -39z m-4582 -64 c29 -58 30
-67 8 -92 -33 -37 -43 -23 -43 62 0 44 2 80 5 80 2 0 16 -22 30 -50z m-271
-115 c49 -132 58 -173 26 -115 -19 34 -80 210 -80 230 0 25 11 1 54 -115z
m1027 -3 c34 -59 -7 -17 -53 53 l-39 60 35 -39 c20 -22 45 -55 57 -74z m3741
-1 c21 -23 28 -41 27 -69 l-1 -37 -12 36 c-19 62 -30 69 -112 69 -40 0 -75 4
-78 9 -10 15 46 31 98 27 41 -3 55 -9 78 -35z m-58 -67 c9 -8 16 -26 16 -40 0
-21 -4 -24 -37 -24 -40 0 -131 36 -120 47 5 5 94 29 119 32 4 1 14 -6 22 -15z
m-4459 -244 l-7 -25 -19 24 c-25 31 -24 82 4 134 l22 42 3 -75 c2 -41 0 -86
-3 -100z m4627 82 c22 -2 56 5 83 17 25 11 45 17 45 13 0 -12 -50 -82 -59 -82
-4 0 -29 7 -54 16 -47 16 -77 45 -77 74 0 8 6 4 13 -10 9 -19 22 -26 49 -28z
m-4314 -81 c38 -47 81 -104 96 -126 l28 -40 -32 35 c-36 40 -121 145 -165 205
-53 71 3 15 73 -74z m685 24 l31 -40 -33 30 c-18 17 -42 44 -54 60 l-21 30 23
-20 c13 -11 37 -38 54 -60z m117 30 c20 -24 7 -26 -25 -5 -27 18 -28 20 -9 20
12 0 27 -7 34 -15z m1691 -2 c-19 -36 -169 -163 -192 -163 -23 0 -6 49 29 82
74 72 189 128 163 81z m1464 -77 c28 -14 43 -25 35 -25 -20 0 -119 47 -100 48
8 0 38 -10 65 -23z m510 -1 c0 -27 -34 -31 -76 -10 -40 21 -23 36 36 33 32 -3
40 -7 40 -23z m-3463 -60 c60 -20 180 -49 266 -66 86 -16 167 -32 180 -35 17
-3 37 -33 83 -127 34 -67 79 -148 100 -179 22 -32 37 -58 35 -58 -19 0 -76 85
-128 189 -34 67 -73 131 -85 141 -14 11 -57 23 -111 30 -120 17 -213 36 -308
65 -85 26 -158 32 -169 15 -10 -16 -52 -12 -59 6 -3 8 -1 24 4 35 16 29 67 24
192 -16z m3204 -72 c-5 -5 -76 35 -76 43 0 2 18 -5 41 -16 23 -12 38 -24 35
-27z m-2591 -13 c-34 -22 -60 -26 -71 -9 -10 17 16 29 61 29 l40 0 -30 -20z
m295 -17 c-70 -27 -69 -24 -15 -42 55 -18 81 -51 64 -83 -14 -26 -39 -22 -79
12 -34 29 -47 34 -82 31 -23 -3 -24 36 -2 67 13 19 24 22 72 21 31 0 50 -3 42
-6z m-256 -45 c18 -25 21 -58 7 -58 -5 0 -13 9 -16 20 -8 24 -41 44 -58 34 -8
-5 -7 -2 2 9 19 24 47 21 65 -5z m-1449 -36 c-7 -7 -45 29 -45 41 0 6 11 0 25
-13 14 -13 23 -26 20 -28z m400 18 c23 -26 8 -26 -25 0 -18 14 -21 20 -9 20 9
0 24 -9 34 -20z m291 -88 c-7 -6 -30 20 -47 53 -6 11 4 5 21 -13 17 -19 29
-37 26 -40z m779 -70 c-6 -35 -8 -36 -21 -17 -19 26 -18 52 4 64 22 12 26 1
17 -47z m-731 -79 c41 -7 41 -7 11 -14 -16 -4 -61 -7 -100 -8 l-69 -1 -53 56
c-29 31 -53 60 -53 64 0 5 50 -13 111 -41 62 -27 130 -52 153 -56z m-98 -115
l29 -33 -32 29 c-31 28 -38 36 -30 36 2 0 16 -15 33 -32z m-256 -12 c22 -27
-5 -17 -31 10 -21 24 -22 26 -3 16 11 -6 26 -18 34 -26z m196 -14 c-8 -7 -25
8 -37 31 -11 21 -10 21 15 -2 14 -14 24 -26 22 -29z m164 -106 c0 -5 -13 3
-30 19 -16 16 -30 30 -30 32 0 2 14 -6 30 -19 17 -12 30 -26 30 -32z"/>
<path d="M2085 6521 c-3 -5 3 -12 14 -16 24 -7 73 4 65 16 -7 12 -71 12 -79 0z"/>
<path d="M2472 6333 c-6 -2 -10 -9 -6 -14 7 -12 71 -12 78 0 11 16 -41 27 -72
14z"/>
<path d="M2245 6300 c-8 -13 38 -24 64 -15 12 3 19 11 16 16 -8 12 -72 12 -80
-1z"/>
<path d="M3995 6148 c13 -42 30 -71 44 -76 11 -4 12 2 7 24 -9 36 -33 74 -47
74 -6 0 -8 -9 -4 -22z"/>
<path d="M1385 6046 c-27 -13 -68 -40 -90 -60 -39 -35 -39 -35 -10 -25 51 17
170 83 168 94 -3 17 -17 15 -68 -9z"/>
<path d="M4276 5603 c-9 -10 -7 -71 3 -77 11 -7 21 17 21 49 0 25 -12 39 -24
28z"/>
<path d="M630 5466 c-26 -15 -70 -68 -70 -86 0 -5 7 -10 16 -10 23 0 84 64 84
89 0 12 -1 21 -2 21 -2 -1 -14 -7 -28 -14z"/>
<path d="M4120 5462 c0 -23 79 -46 115 -32 19 7 19 7 -2 19 -33 17 -113 26
-113 13z"/>
<path d="M5155 4228 c-9 -22 -2 -63 10 -63 14 0 18 41 6 62 -9 17 -10 17 -16
1z"/>
<path d="M5060 3948 c-22 -48 -25 -78 -9 -78 10 0 33 46 44 93 11 43 -13 32
-35 -15z"/>
<path d="M4880 3887 c0 -4 7 -22 16 -40 30 -58 64 -86 64 -52 0 16 -79 107
-80 92z"/>
<path d="M4322 3594 c-25 -17 -30 -54 -7 -54 9 0 27 12 40 26 37 40 13 61 -33
28z"/>
<path d="M4307 3394 c-10 -11 -8 -92 2 -99 14 -8 24 55 14 83 -5 13 -12 20
-16 16z"/>
<path d="M4527 2991 c-9 -42 -8 -100 2 -125 7 -18 8 -18 14 5 8 30 7 96 -2
129 -7 24 -7 24 -14 -9z"/>
<path d="M3065 2961 c-159 -56 -307 -136 -214 -116 69 14 339 126 339 140 0
11 -50 2 -125 -24z"/>
<path d="M2645 2828 c-180 -54 -188 -59 -75 -52 63 4 109 12 136 25 39 18 82
55 73 62 -2 2 -62 -14 -134 -35z"/>
<path d="M5292 2808 c3 -25 34 -36 52 -18 8 8 6 15 -8 26 -29 21 -48 18 -44
-8z"/>
<path d="M4550 2686 c0 -68 16 -100 22 -44 4 48 -3 108 -13 108 -5 0 -9 -29
-9 -64z"/>
<path d="M4580 2504 c0 -27 4 -43 10 -39 6 3 10 24 10 46 0 21 -4 39 -10 39
-5 0 -10 -21 -10 -46z"/>
<path d="M2460 2467 c0 -16 51 -67 67 -67 20 0 16 27 -8 49 -25 23 -59 34 -59
18z"/>
<path d="M3794 2338 c-4 -6 16 -33 45 -60 34 -33 51 -59 51 -75 0 -13 5 -23
13 -22 27 3 35 -2 47 -33 20 -49 31 -62 41 -46 16 25 9 64 -19 109 -50 78
-160 157 -178 127z"/>
<path d="M1517 1913 c-17 -16 53 -92 86 -93 26 0 21 15 -21 60 -38 39 -52 47
-65 33z"/>
<path d="M2030 2625 c-16 -20 -4 -35 29 -35 37 0 44 10 24 32 -20 22 -36 23
-53 3z"/>
<path d="M4550 2075 c0 -67 15 -90 21 -32 6 46 -1 97 -12 97 -5 0 -9 -29 -9
-65z"/>
<path d="M956 6953 c-18 -57 -78 -381 -73 -396 2 -6 15 11 30 36 16 26 30 47
33 47 3 0 3 -22 -1 -50 -4 -27 -3 -50 2 -50 8 0 167 235 214 317 28 49 21 63
-18 39 l-28 -17 28 25 c15 14 38 26 51 26 23 0 66 37 66 58 0 8 -18 12 -50 12
-49 0 -100 -16 -100 -32 0 -16 -25 -8 -38 12 -16 26 -34 25 -51 -2 l-14 -22
-8 22 c-13 34 -26 26 -43 -25z m99 -169 c-23 -17 -66 -15 -73 4 -2 8 10 12 45
12 45 -1 47 -2 28 -16z"/>
<path d="M4717 6993 c-31 -8 -15 -37 26 -46 47 -11 107 -1 107 18 0 23 -83 41
-133 28z"/>
<path d="M5552 6863 c-9 -3 3 -20 37 -52 l51 -47 0 -65 c0 -99 25 -110 126
-59 66 33 159 113 150 129 -15 24 -141 -39 -178 -89 -36 -50 -50 -40 -42 30 7
68 -5 111 -41 134 -25 17 -84 28 -103 19z"/>
<path d="M6606 5899 c-70 -78 -78 -134 -34 -222 24 -48 87 -119 99 -111 14 8
2 39 -44 118 -46 80 -49 104 -15 148 29 38 58 92 58 108 0 21 -19 9 -64 -41z"/>
<path d="M6190 5881 c-16 -30 -12 -43 13 -39 16 2 23 11 25 31 4 32 -21 38
-38 8z"/>
<path d="M5326 5692 c-15 -25 52 -152 80 -152 18 0 13 22 -22 91 -25 50 -49
75 -58 61z"/>
<path d="M6391 5594 c-12 -15 -21 -33 -21 -41 0 -13 5 -12 28 3 20 13 44 18
90 17 34 -1 62 2 62 6 0 15 -67 41 -103 41 -26 0 -41 -7 -56 -26z"/>
<path d="M6716 5521 c-19 -21 -14 -41 9 -41 17 0 34 30 28 48 -6 17 -17 15
-37 -7z"/>
<path d="M5802 5494 c-32 -22 -28 -51 29 -221 60 -175 61 -176 175 -171 l69 3
-62 29 c-78 36 -103 63 -114 123 -5 26 -23 76 -39 111 -17 36 -30 69 -30 74 0
5 18 7 43 3 73 -11 128 28 78 55 -30 16 -123 12 -149 -6z"/>
<path d="M6330 5497 c-28 -14 -50 -51 -50 -84 0 -29 17 -39 25 -14 3 11 17 36
31 56 30 45 28 59 -6 42z"/>
<path d="M6785 5346 c-13 -13 -27 -41 -30 -62 -4 -22 -12 -59 -19 -84 l-12
-45 -79 4 c-115 5 -378 -10 -340 -20 17 -4 123 -15 237 -25 243 -20 238 -22
238 66 0 32 3 72 6 90 6 30 9 31 40 25 29 -5 34 -3 34 12 0 22 -27 63 -41 63
-5 0 -21 -11 -34 -24z"/>
<path d="M6840 5239 c0 -27 53 -139 79 -166 12 -13 31 -23 41 -23 39 0 20 55
-51 147 -45 58 -69 73 -69 42z"/>
<path d="M5570 4952 c0 -48 115 -212 149 -212 14 0 -15 55 -82 157 -43 65 -67
85 -67 55z"/>
<path d="M6681 4944 c-73 -20 -268 -122 -366 -192 -75 -54 -146 -134 -132
-148 4 -4 26 11 49 33 82 75 346 236 465 283 100 40 91 53 -16 24z"/>
<path d="M1488 4498 c-129 -134 -279 -290 -333 -348 -134 -144 -436 -534 -480
-620 l-18 -35 28 25 c15 14 100 115 189 225 210 261 409 492 641 745 103 113
197 215 208 228 11 12 16 22 10 22 -6 0 -117 -109 -245 -242z"/>
<path d="M1285 4610 c-14 -16 -16 -23 -6 -33 15 -15 46 3 46 28 0 26 -19 29
-40 5z"/>
<path d="M5760 4597 c0 -74 135 -303 196 -332 51 -24 226 -42 260 -26 23 10
26 16 21 47 -6 35 -6 36 16 20 12 -9 63 -40 112 -70 178 -106 204 -113 252
-71 l28 24 -37 -6 c-29 -4 -43 0 -70 21 -42 32 -184 99 -258 121 -30 9 -68 22
-84 28 -45 17 -162 96 -256 174 -133 109 -180 128 -180 70z m170 -145 c35 -30
98 -78 142 -109 43 -30 78 -57 78 -59 0 -8 -72 6 -117 22 -46 17 -100 71 -172
175 -49 70 -46 68 69 -29z"/>
<path d="M6824 4211 c-10 -11 -29 -21 -42 -21 -60 0 -152 -75 -152 -125 0 -25
7 -29 73 -40 28 -4 37 -10 33 -20 -6 -16 22 -35 53 -35 13 0 21 -8 23 -22 2
-16 9 -22 23 -21 29 4 65 -6 65 -17 0 -5 -7 -7 -15 -4 -8 4 -15 3 -15 -1 0
-14 42 -65 71 -86 39 -27 59 -13 59 43 0 60 -22 90 -115 158 -47 35 -84 68
-82 74 2 6 38 20 80 32 80 22 107 37 107 60 0 19 -31 33 -93 40 -48 6 -57 4
-73 -15z"/>
<path d="M6395 4121 c13 -21 93 -42 150 -39 l60 3 -71 23 c-72 22 -150 30
-139 13z"/>
<path d="M4683 4086 c-15 -13 -26 -27 -23 -29 10 -10 70 22 70 38 0 21 -15 19
-47 -9z"/>
<path d="M6063 4037 c6 -64 23 -117 38 -117 24 0 16 91 -12 154 -21 46 -32 30
-26 -37z"/>
<path d="M4467 4073 c-11 -10 -8 -41 3 -48 15 -9 40 14 40 36 0 19 -29 27 -43
12z"/>
<path d="M6120 3825 c0 -33 26 -95 39 -95 16 0 13 57 -4 90 -19 37 -35 39 -35
5z"/>
<path d="M10 3740 c0 -12 130 -100 149 -100 22 0 -6 29 -73 72 -61 39 -76 45
-76 28z"/>
<path d="M10 3572 c0 -5 16 -30 36 -55 31 -39 36 -54 36 -93 -2 -60 -30 -118
-60 -122 -17 -3 -22 -9 -20 -25 4 -27 30 -33 69 -16 36 14 54 47 75 135 19 85
9 115 -55 155 -44 28 -81 38 -81 21z"/>
<path d="M3370 3514 c-34 -23 -100 -86 -100 -96 0 -11 78 38 113 70 42 40 34
57 -13 26z"/>
<path d="M6462 3508 c-17 -17 -15 -58 3 -58 18 0 49 45 40 60 -8 13 -28 13
-43 -2z"/>
<path d="M6345 3439 c-56 -67 -209 -408 -191 -426 13 -13 35 23 111 181 82
169 124 241 109 186 -3 -14 -35 -87 -71 -163 -35 -76 -66 -153 -69 -170 -5
-31 -5 -31 11 -12 10 11 44 74 76 140 64 131 99 247 83 273 -17 26 -30 24 -59
-9z"/>
<path d="M6718 3400 c-21 -32 -60 -158 -104 -335 -48 -192 -54 -322 -24 -499
12 -71 26 -139 30 -152 11 -29 -14 -46 -71 -48 -32 0 -44 6 -77 42 -24 26 -51
44 -71 48 -41 9 -61 40 -95 148 -46 147 -81 161 -47 20 11 -49 19 -90 16 -92
-2 -2 -15 19 -29 47 -15 28 -29 51 -33 51 -6 0 2 -120 13 -191 l7 -41 -110 3
c-78 3 -115 9 -128 19 -23 19 -57 94 -111 249 -48 137 -66 171 -95 178 -52 14
-9 191 100 412 64 129 70 151 47 151 -20 0 -44 -37 -101 -150 -83 -166 -98
-214 -98 -315 -1 -103 29 -264 73 -405 32 -101 38 -158 18 -178 -15 -15 9 -25
54 -20 32 3 33 4 32 48 l-1 45 16 -33 c20 -42 8 -62 -47 -82 -23 -8 -42 -19
-42 -24 0 -13 358 1 460 18 46 8 85 14 86 13 1 -1 11 -56 23 -122 34 -186 46
-241 53 -230 3 6 12 37 19 70 l14 60 3 -50 c3 -65 10 -95 22 -95 6 0 10 48 10
119 0 133 3 141 67 162 53 17 130 56 140 71 4 7 12 38 18 68 13 62 31 76 139
105 94 26 130 82 78 123 -22 17 -125 15 -194 -4 -35 -10 -63 -13 -68 -8 -20
21 -30 166 -20 277 11 114 41 268 66 339 16 45 19 92 5 84 -10 -7 -32 -65 -67
-181 -43 -142 -39 -84 6 95 23 90 40 175 38 189 l-3 26 -17 -25z m-91 -552
c-2 -13 -4 -5 -4 17 -1 22 1 32 4 23 2 -10 2 -28 0 -40z m-800 -151 c3 -50 2
-58 -7 -44 -7 11 -14 47 -17 80 -3 50 -2 58 7 44 7 -11 14 -47 17 -80z m800
-29 c-2 -13 -4 -5 -4 17 -1 22 1 32 4 23 2 -10 2 -28 0 -40z m47 -142 c5 -15
13 -17 44 -12 34 6 36 5 18 -9 -31 -24 -65 -19 -76 11 -6 14 -10 35 -9 47 0
21 1 21 9 2 5 -11 11 -28 14 -39z m201 24 c4 -6 -7 -10 -27 -9 -27 0 -30 2
-13 9 27 12 33 12 40 0z m-185 -157 c0 -29 -15 -61 -24 -52 -8 8 6 79 15 79 5
0 9 -12 9 -27z m-266 -9 c12 -5 25 -35 14 -34 -2 1 -32 9 -68 20 l-65 19 52 0
c28 1 58 -2 67 -5z m-201 -31 c-13 -2 -33 -2 -45 0 -13 2 -3 4 22 4 25 0 35
-2 23 -4z m257 -105 c0 -45 -10 -79 -21 -72 -17 10 -6 104 12 104 5 0 9 -15 9
-32z"/>
<path d="M5954 3329 c-33 -40 -154 -324 -154 -359 0 -29 27 13 74 114 71 152
98 221 94 242 -2 14 -5 15 -14 3z"/>
<path d="M1853 3075 c-73 -24 -145 -51 -160 -59 l-28 -15 35 5 c111 18 290 83
290 105 0 11 14 15 -137 -36z"/>
<path d="M121 2934 c7 -8 25 -22 41 -30 23 -12 28 -12 28 -1 0 21 -33 47 -60
47 -19 0 -21 -2 -9 -16z"/>
<path d="M6121 2908 c-10 -27 3 -58 24 -58 26 0 65 20 65 33 0 20 -33 47 -59
47 -13 0 -25 -9 -30 -22z"/>
<path d="M10 2875 c7 -8 29 -19 49 -25 46 -13 169 -13 156 -1 -18 17 -118 41
-168 41 -43 0 -48 -2 -37 -15z"/>
<path d="M294 2865 c-9 -21 55 -113 99 -142 35 -24 62 -29 71 -14 8 12 -65
102 -106 133 -52 38 -58 41 -64 23z"/>
<path d="M1402 2863 c-12 -2 -20 -9 -17 -14 8 -12 122 -12 129 0 11 17 -54 25
-112 14z"/>
<path d="M526 2553 c-16 -17 14 -153 34 -153 10 0 20 36 20 72 0 48 -35 100
-54 81z"/>
<path d="M180 2374 c-38 -37 -70 -71 -70 -76 0 -15 79 33 126 78 24 22 44 46
44 52 0 27 -33 8 -100 -54z"/>
<path d="M284 2355 c-16 -40 -18 -81 -4 -90 15 -9 50 56 50 93 0 44 -27 43
-46 -3z"/>
<path d="M0 2365 c0 -13 73 -84 82 -79 5 4 -7 24 -28 45 -34 35 -54 48 -54 34z"/>
<path d="M580 2291 c0 -22 4 -42 9 -45 12 -8 23 41 16 65 -11 33 -25 21 -25
-20z"/>
<path d="M270 2176 c0 -30 6 -38 48 -64 60 -39 137 -72 165 -71 20 0 20 2 -7
22 -16 12 -63 50 -105 85 -42 34 -81 62 -88 62 -8 0 -13 -13 -13 -34z"/>
<path d="M265 2000 c-4 -6 12 -10 40 -10 28 0 44 4 40 10 -3 6 -21 10 -40 10
-19 0 -37 -4 -40 -10z"/>
<path d="M16 1983 c-40 -40 93 -263 157 -263 36 0 47 19 47 80 l-1 55 -34 -37
c-40 -43 -45 -45 -45 -19 0 29 -11 51 -25 51 -6 0 -24 29 -39 64 -26 60 -46
83 -60 69z"/>
<path d="M6060 1890 c0 -5 23 -10 50 -10 28 0 50 5 50 10 0 6 -22 10 -50 10
-27 0 -50 -4 -50 -10z"/>
<path d="M6060 1841 c-22 -6 -23 -8 -7 -14 26 -10 99 -9 115 2 28 17 -56 27
-108 12z"/>
<path d="M4230 1757 c0 -7 19 -38 41 -68 23 -30 59 -91 80 -136 21 -46 43 -83
49 -83 22 0 8 61 -30 138 -51 102 -140 197 -140 149z"/>
<path d="M5896 1658 c-18 -25 -21 -58 -7 -58 13 0 51 50 51 66 0 22 -27 16
-44 -8z"/>
<path d="M648 1623 c-24 -28 -70 -104 -65 -109 6 -6 107 103 107 115 0 17 -25
13 -42 -6z"/>
<path d="M6016 1592 c-6 -10 21 -52 33 -52 15 0 22 32 10 46 -13 16 -35 18
-43 6z"/>
<path d="M5930 1564 c0 -43 36 -93 68 -94 21 0 13 27 -12 44 -13 8 -27 29 -31
46 -8 37 -25 40 -25 4z"/>
<path d="M5854 1535 c-7 -18 12 -45 32 -45 17 0 18 32 2 48 -16 16 -27 15 -34
-3z"/>
<path d="M340 1519 c15 -28 69 -59 103 -59 37 0 27 14 -36 50 -63 36 -82 39
-67 9z"/>
<path d="M290 1477 c0 -8 19 -40 42 -73 65 -93 70 -112 47 -163 -25 -57 -24
-65 7 -45 29 20 54 63 54 95 0 34 -36 102 -81 153 -40 45 -69 59 -69 33z"/>
<path d="M6081 1432 c16 -48 79 -104 79 -71 0 29 -54 99 -76 99 -10 0 -11 -7
-3 -28z"/>
<path d="M6044 1385 c8 -32 23 -55 37 -55 19 0 8 38 -17 61 l-27 24 7 -30z"/>
<path d="M873 1276 c-106 -34 -158 -95 -157 -186 1 -54 25 -120 44 -120 6 0
10 33 10 76 0 93 17 133 69 162 75 43 120 26 171 -63 37 -64 60 -72 60 -20 0
61 -51 131 -113 154 -34 13 -31 13 -84 -3z"/>
<path d="M4550 1195 c0 -30 5 -55 10 -55 6 0 10 25 10 55 0 30 -4 55 -10 55
-5 0 -10 -25 -10 -55z"/>
<path d="M465 1116 c-18 -13 -18 -14 3 -25 37 -20 122 -10 122 14 0 27 -92 35
-125 11z"/>
<path d="M354 1056 c-16 -13 -26 -27 -22 -31 9 -9 71 26 70 40 -1 19 -20 16
-48 -9z"/>
<path d="M6650 1031 c0 -17 103 -72 128 -69 40 5 29 22 -28 44 -82 32 -100 37
-100 25z"/>
<path d="M668 1014 c-9 -14 18 -85 41 -108 25 -25 35 -17 27 22 -8 34 -60 100
-68 86z"/>
<path d="M1240 983 c-15 -53 -24 -123 -16 -123 4 0 16 19 26 43 20 44 27 117
10 117 -5 0 -14 -17 -20 -37z"/>
<path d="M3737 993 c-4 -3 -7 -9 -7 -13 0 -8 107 -40 134 -40 16 0 16 2 5 16
-28 34 -112 58 -132 37z"/>
<path d="M1295 961 c-8 -15 22 -148 43 -190 23 -45 60 -65 96 -51 34 12 33 37
-1 53 -40 17 -59 43 -89 120 -28 70 -38 84 -49 68z"/>
<path d="M3730 925 c0 -17 95 -95 116 -95 23 0 16 24 -13 52 -60 54 -103 73
-103 43z"/>
<path d="M4890 902 c0 -5 25 -37 56 -73 33 -38 75 -104 105 -164 49 -102 176
-471 200 -580 13 -64 24 -85 44 -85 21 0 26 28 14 78 -6 26 -14 90 -18 142 -5
56 -13 96 -20 98 -27 9 -107 205 -98 239 3 11 5 6 6 -11 1 -28 1 -29 21 -11
19 18 20 17 17 -21 -2 -32 1 -39 18 -39 15 0 21 -9 26 -35 3 -19 16 -55 29
-80 13 -25 45 -105 71 -179 49 -135 71 -181 89 -181 17 0 11 38 -26 151 -19
61 -33 113 -30 116 3 4 17 -20 32 -53 78 -177 102 -214 140 -214 42 0 30 50
-61 255 -47 105 -85 191 -85 193 0 11 25 -6 73 -49 63 -56 99 -118 137 -234
48 -147 100 -214 100 -127 0 42 -39 208 -69 296 -12 33 -20 60 -18 62 1 1 24
-13 50 -32 33 -24 47 -41 47 -58 0 -34 68 -91 209 -175 97 -58 200 -111 217
-111 2 0 4 6 4 14 0 14 -43 45 -132 95 -107 60 -54 46 66 -17 38 -20 84 -51
102 -69 30 -30 39 -33 116 -38 l83 -7 -25 20 c-13 11 -78 48 -145 83 -66 34
-174 96 -240 137 -165 103 -288 167 -367 192 -37 12 -95 40 -130 62 -78 51
-126 68 -155 57 -29 -10 -29 -37 -3 -120 10 -35 17 -65 15 -67 -8 -8 -45 64
-51 98 -14 87 -36 143 -72 182 l-37 41 -5 -29 c-7 -39 -46 -46 -59 -11 -5 14
-7 34 -4 46 3 12 -4 36 -16 57 l-22 36 31 -26 c56 -47 86 -23 33 26 -64 58
-110 76 -98 37 6 -19 5 -20 -17 -8 -12 6 -44 31 -70 55 -43 40 -78 56 -78 36z
m992 -670 l23 -25 -33 19 c-19 10 -48 32 -65 47 l-32 28 42 -22 c24 -13 53
-34 65 -47z"/>
<path d="M3915 840 c-15 -25 33 -70 74 -70 30 0 26 24 -10 54 -32 27 -54 33
-64 16z"/>
<path d="M970 786 c0 -30 109 -62 125 -36 6 10 -51 37 -97 47 -22 4 -28 2 -28
-11z"/>
<path d="M4210 738 c-36 -22 -73 -47 -82 -55 -27 -24 -22 -63 17 -123 40 -63
45 -84 15 -75 -14 4 -22 1 -26 -10 -9 -23 2 -29 41 -27 30 2 35 -1 35 -18 0
-30 -17 -58 -66 -112 -24 -25 -46 -58 -50 -72 -8 -34 37 -238 55 -244 11 -4
12 18 6 126 l-7 130 35 38 c19 22 40 50 47 63 20 39 13 105 -20 180 -41 95
-39 109 21 176 29 30 50 57 48 59 -2 2 -33 -14 -69 -36z"/>
<path d="M5220 735 c0 -52 88 -155 132 -155 17 0 28 5 28 13 0 13 -141 157
-154 157 -3 0 -6 -7 -6 -15z"/>
<path d="M910 732 c0 -4 31 -39 70 -77 89 -88 96 -105 76 -183 -26 -99 -17
-144 18 -89 17 26 56 151 56 178 0 25 -49 79 -122 134 -54 41 -98 57 -98 37z"/>
<path d="M1602 704 c-32 -22 -29 -48 4 -40 32 8 74 35 74 47 0 15 -54 10 -78
-7z"/>
<path d="M1505 630 c-24 -9 -50 -38 -42 -46 6 -6 63 22 72 35 8 14 -7 20 -30
11z"/>
<path d="M3726 631 c-8 -12 50 -51 76 -51 46 0 15 45 -39 56 -18 3 -33 1 -37
-5z"/>
<path d="M3310 545 c0 -33 26 -95 39 -95 16 0 13 45 -3 85 -17 41 -36 46 -36
10z"/>
<path d="M6521 505 c-47 -51 -53 -73 -13 -48 41 25 82 65 82 80 0 25 -28 12
-69 -32z"/>
<path d="M3996 511 c-11 -18 6 -41 30 -41 29 0 32 25 5 40 -24 12 -28 12 -35
1z"/>
<path d="M2050 455 c0 -35 43 -126 71 -150 37 -30 106 -34 169 -9 50 20 51 34
3 34 -74 0 -109 17 -163 80 -51 58 -80 75 -80 45z"/>
<path d="M1200 423 c-42 -28 -141 -115 -136 -120 5 -6 166 75 189 95 42 37 -4
59 -53 25z"/>
<path d="M1300 417 c0 -30 129 -125 150 -112 25 15 8 46 -42 79 -64 42 -108
55 -108 33z"/>
<path d="M2428 343 c-81 -84 -138 -157 -138 -180 0 -24 55 22 127 106 64 74
103 128 103 144 0 18 -20 2 -92 -70z"/>
<path d="M3830 405 c0 -23 35 -123 42 -119 14 9 9 78 -8 102 -14 20 -34 30
-34 17z"/>
<path d="M6510 397 c0 -16 48 -84 79 -111 28 -25 28 -3 0 44 -39 65 -79 98
-79 67z"/>
<path d="M3728 333 c-8 -54 2 -139 13 -121 11 16 10 116 0 143 -6 15 -9 11
-13 -22z"/>
<path d="M3806 244 c-8 -30 1 -67 15 -59 12 8 12 72 0 79 -5 3 -12 -6 -15 -20z"/>
<path d="M5300 241 c0 -62 54 -236 70 -226 9 6 -4 80 -30 165 -26 85 -40 106
-40 61z"/>
<path d="M1750 211 c-12 -9 -12 -11 2 -16 23 -9 63 -2 61 10 -3 14 -45 17 -63
6z"/>
<path d="M1790 137 c0 -24 36 -48 101 -68 100 -31 89 -7 -23 51 -64 33 -78 36
-78 17z"/>
<path d="M2270 96 c0 -8 7 -22 16 -31 19 -19 38 -7 32 21 -4 23 -48 32 -48 10z"/>
<path d="M4980 33 c-105 -24 -95 -33 41 -33 133 0 162 7 140 34 -17 20 -92 20
-181 -1z"/>
</g>
</svg>
