<svg xmlns="http://www.w3.org/2000/svg" viewBox="0 0 512 512"><path fill="#FCDDB1" d="M503.392 501.921c-3.222 3.222-7.444 4.833-11.667 4.833s-8.445-1.611-11.667-4.833L377.686 399.55c-.003-.003-.004-.005-.007-.008L267.836 289.7l-.005-.005-22.081-22.08c-.005-.005-.009-.01-.013-.015L56.887 78.751c-6.444-6.444-6.444-16.891 0-23.335 6.444-6.443 16.891-6.443 23.334 0l53.641 53.641c1.12.677 2.184 1.48 3.151 2.447l22.08 22.081c.966.966 1.769 2.03 2.446 3.149L276.444 251.64l14.721 14.72c.003.003.006.007.009.01l212.217 212.217c6.445 6.443 6.445 16.891.001 23.334z" id="Layer_2"/><path fill="#A5E077" d="M402.931 424.795c-14.278 10.375-31.793 16.489-50.722 16.489-48.033 0-86.972-39.342-86.972-87.873s38.939-87.873 86.972-87.873c48.033 0 86.972 39.342 86.972 87.873 0 17.415-5.015 33.646-13.664 47.301l-24.497-24.497c-6.443-6.443-16.891-6.443-23.334 0-6.444 6.443-6.444 16.891 0 23.334l25.245 25.246z" id="Layer_3"/><path fill="#FFD469" d="M272.83 293.107c-14.442 10.784-32.301 17.162-51.637 17.162-48.033 0-86.972-39.342-86.972-87.873s38.939-87.873 86.972-87.873 86.972 39.342 86.972 87.873c0 17.684-5.175 34.145-14.072 47.93-.753-1.427-1.729-2.767-2.929-3.967l-22.081-22.08c-6.443-6.443-16.891-6.443-23.334 0-6.443 6.444-6.443 16.891 0 23.335l22.081 22.08c1.486 1.486 3.188 2.612 5 3.413z" id="Layer_4"/><path fill="#FFA1E0" d="M140.467 160.195c-14.496 10.926-32.476 17.395-51.952 17.395-48.033 0-86.972-39.342-86.972-87.873S40.482 1.845 88.515 1.845c48.033 0 86.972 39.342 86.972 87.873 0 17.455-5.038 33.721-13.724 47.396-.716-1.261-1.595-2.454-2.67-3.529l-22.08-22.081c-6.443-6.443-16.891-6.444-23.334 0-6.444 6.444-6.444 16.891 0 23.334l22.08 22.081c1.404 1.404 3.005 2.484 4.708 3.276z" id="Layer_5"/></svg>